<svg version="1.1" id="Layer_1" xmlns="http://www.w3.org/2000/svg" xmlns:xlink="http://www.w3.org/1999/xlink" x="0px" y="0px"
	 width="100%" viewBox="0 0 234 336" enable-background="new 0 0 234 336" xml:space="preserve">
<path fill="#ffffff00" opacity="0" stroke="none" 
	d="
M104.000000,337.000000 
	C69.348320,337.000000 35.196644,337.000000 1.022483,337.000000 
	C1.022483,225.064133 1.022483,113.128242 1.022483,1.096183 
	C78.901558,1.096183 156.803268,1.096183 234.852493,1.096183 
	C234.852493,112.999847 234.852493,224.999908 234.852493,337.000000 
	C191.461761,337.000000 147.980881,337.000000 104.000000,337.000000 
M226.056152,73.468826 
	C226.169434,73.305305 226.282715,73.141777 226.883911,72.331009 
	C226.943649,69.512871 227.272141,66.659500 226.910004,63.896660 
	C226.791367,62.991558 224.599777,61.438999 223.830688,61.682316 
	C217.089462,63.815025 210.373566,66.082611 203.812210,68.714256 
	C196.655457,71.584694 189.756561,75.100357 182.589951,77.943230 
	C174.200104,81.271355 165.563095,83.977684 157.181137,87.324059 
	C149.391083,90.434135 141.817734,94.083069 134.106110,97.394981 
	C129.285904,99.465126 127.737236,103.130516 127.956093,108.192749 
	C128.376877,117.925644 128.046005,127.691048 127.176193,137.881119 
	C123.189827,137.921051 119.203506,137.990326 115.217087,137.996323 
	C78.496277,138.051590 41.775440,138.095932 4.300248,138.524643 
	C4.200844,139.176834 4.014518,139.829010 4.014385,140.481216 
	C4.001759,202.761612 3.998079,265.042023 4.042660,327.322388 
	C4.043522,328.526489 4.623473,329.730225 5.800138,330.977722 
	C7.535713,330.974030 9.271287,330.970337 11.529902,330.793549 
	C12.012554,330.528473 12.495206,330.263397 13.410072,330.754303 
	C59.576340,330.797394 105.742607,330.840485 152.818085,331.060059 
	C155.579529,330.994781 158.340958,330.929535 162.023636,330.948059 
	C179.655579,330.919403 197.287521,330.890717 215.830811,330.996307 
	C227.941345,331.001556 225.792404,332.186218 226.012222,320.989288 
	C226.018631,320.663513 226.052002,320.338257 226.013412,319.996643 
	C226.013412,319.996643 226.024094,320.057220 226.564316,319.808105 
	C226.684067,319.243439 226.803802,318.678741 227.034271,317.217834 
	C227.003784,315.113495 226.973282,313.009155 226.989456,309.980865 
	C226.992432,302.546143 227.066666,295.110291 226.951691,287.677399 
	C226.920273,285.645966 226.320602,283.623352 226.108032,281.317810 
	C226.108032,281.317810 226.019012,281.024872 225.988647,280.096161 
	C226.021912,276.070862 226.055191,272.045563 226.030060,267.991516 
	C226.030060,267.991516 226.034637,268.056122 226.646164,267.744354 
	C226.752609,266.846741 226.859055,265.949127 227.048157,264.110718 
	C227.000488,252.540298 226.952820,240.969879 226.241989,228.630692 
	C226.340210,224.356949 226.438431,220.083221 226.956223,215.164612 
	C226.997040,204.200790 227.076935,193.236801 227.030701,182.273346 
	C227.024719,180.852112 226.367325,179.433624 226.023331,177.082367 
	C226.061646,172.715744 226.099960,168.349106 226.772644,163.436630 
	C226.849625,152.643707 226.972443,141.850677 226.947571,131.057983 
	C226.944351,129.654724 226.180115,128.253204 225.886475,126.221664 
	C225.872879,125.799141 225.859283,125.376625 225.960693,124.499763 
	C225.960693,124.499763 225.883240,124.037537 226.042511,123.151100 
	C225.988586,120.752602 225.934647,118.354111 225.980667,115.028862 
	C225.948029,107.369202 225.915390,99.709534 226.042786,91.132767 
	C225.992401,87.409111 225.942017,83.685455 225.991608,79.235542 
	C225.958206,78.504837 225.924789,77.774132 226.040421,76.356483 
	C225.988770,75.893562 225.937119,75.430649 225.961716,74.492683 
	C225.961716,74.492683 225.843338,74.026390 226.056152,73.468826 
z"/>
<path fill="#8F8987" opacity="1.000000" stroke="none" 
	d="
M225.891632,79.961800 
	C225.942017,83.685455 225.992401,87.409111 225.701752,91.907898 
	C225.534042,100.440559 225.707382,108.198090 225.880737,115.955612 
	C225.934647,118.354111 225.988586,120.752602 225.822708,123.675819 
	C225.400330,124.513184 225.481262,124.764374 225.845688,124.954102 
	C225.859283,125.376625 225.872879,125.799141 225.651794,126.527344 
	C225.417130,126.833031 225.074875,126.914261 224.834015,126.695847 
	C223.750031,126.481422 222.906891,126.485405 221.613861,126.339371 
	C214.347763,126.276237 207.529037,126.278915 200.716309,126.482353 
	C196.791046,126.599571 191.098862,125.606689 189.407028,127.701706 
	C187.310623,130.297714 188.400833,135.572372 188.350403,139.692780 
	C188.253311,147.624466 188.322098,155.558182 188.322098,163.801224 
	C201.013824,163.801224 212.962311,163.801224 225.216934,163.851440 
	C225.728149,163.928589 225.933228,163.955536 226.138275,163.982483 
	C226.099960,168.349106 226.061646,172.715744 225.550964,177.610153 
	C214.257767,178.101654 203.436005,178.132828 192.616608,177.987808 
	C189.387665,177.944534 188.180618,179.180695 188.219193,182.399963 
	C188.338913,192.388443 188.330368,202.379944 188.225433,212.368729 
	C188.195358,215.232056 189.362381,216.142014 192.092636,216.102417 
	C203.572983,215.935867 215.055145,215.895828 226.536652,215.809479 
	C226.438431,220.083221 226.340210,224.356949 226.022705,228.976501 
	C214.810455,229.245193 203.813583,229.312210 192.826599,229.014359 
	C188.873398,228.907196 188.085358,230.530457 188.160736,234.045456 
	C188.353607,243.039993 188.517960,252.054398 188.113525,261.034729 
	C187.897049,265.841278 189.522446,267.705231 194.174622,267.582794 
	C198.836533,267.460083 203.505737,267.545502 208.170532,267.618164 
	C214.143814,267.711212 220.115875,267.882629 226.088470,268.020264 
	C226.055191,272.045563 226.021912,276.070862 225.547302,280.687439 
	C214.633698,281.281616 204.158340,281.432831 193.690765,281.212952 
	C189.630432,281.127655 188.082047,282.346954 188.200546,286.570465 
	C188.461533,295.872101 188.482635,305.191742 188.204407,314.492157 
	C188.076340,318.772919 189.691299,319.880066 193.703308,319.830536 
	C204.490738,319.697327 215.282669,319.927094 226.072800,320.012756 
	C226.052002,320.338257 226.018631,320.663513 226.012222,320.989288 
	C225.792404,332.186218 227.941345,331.001556 215.080002,330.640869 
	C212.855621,330.183228 211.382507,329.999908 209.908386,329.991272 
	C193.855804,329.897064 177.803040,329.830200 161.698029,329.304993 
	C161.637131,268.345703 161.635864,207.837296 161.596802,147.328888 
	C161.594986,144.515396 161.255417,141.702133 160.953232,138.511719 
	C154.888748,138.092178 148.944199,138.049667 142.590744,137.950775 
	C141.677597,136.959473 140.750946,136.031448 140.735504,135.088501 
	C140.604782,127.112900 140.772568,119.131058 140.559692,111.158859 
	C140.476761,108.053436 141.936249,106.722832 144.516922,105.711739 
	C151.485336,102.981529 158.388138,100.084457 165.336868,97.303329 
	C185.092957,89.396202 204.858948,81.513832 224.738617,73.736496 
	C224.856186,73.851265 225.096283,74.075623 225.168411,74.270302 
	C225.390381,74.716049 225.605362,74.883629 225.885483,74.967728 
	C225.937119,75.430649 225.988770,75.893562 225.739548,76.884964 
	C225.589661,78.262901 225.740646,79.112350 225.891632,79.961800 
z"/>
<path fill="#242322" opacity="1.000000" stroke="none" 
	d="
M224.621033,73.621719 
	C204.858948,81.513832 185.092957,89.396202 165.336868,97.303329 
	C158.388138,100.084457 151.485336,102.981529 144.516922,105.711739 
	C141.936249,106.722832 140.476761,108.053436 140.559692,111.158859 
	C140.772568,119.131058 140.604782,127.112900 140.735504,135.088501 
	C140.750946,136.031448 141.677597,136.959473 142.914185,138.204224 
	C149.455383,138.638947 155.264267,138.763855 161.073151,138.888763 
	C161.255417,141.702133 161.594986,144.515396 161.596802,147.328888 
	C161.635864,207.837296 161.637131,268.345703 161.497879,329.356415 
	C161.350021,329.858704 160.949524,329.961914 160.518005,329.909332 
	C158.059311,329.805206 156.032135,329.753632 154.020477,329.309753 
	C154.024094,325.000977 153.896667,321.080536 154.032501,317.169250 
	C154.170105,313.206909 154.838089,309.250763 154.796661,305.296936 
	C154.705292,296.578491 154.085846,287.862610 154.108154,279.146759 
	C154.130875,270.264526 154.907394,261.383545 154.904434,252.502167 
	C154.901581,243.954193 154.308060,235.406967 154.015427,226.858002 
	C153.970108,225.534088 154.171494,224.203415 154.215576,222.874451 
	C154.460541,215.489639 155.043625,208.094421 154.834671,200.721939 
	C154.601456,192.493042 153.377548,184.294464 153.075729,176.064682 
	C152.752274,167.245316 153.075317,158.404083 152.969803,149.574158 
	C152.910156,144.582550 151.094620,143.647446 146.517670,145.270615 
	C144.621826,145.942963 142.316666,145.703751 140.225586,145.534332 
	C135.279785,145.133606 130.340927,144.033142 125.417503,144.131241 
	C119.668404,144.245804 113.943123,145.860275 108.199821,145.908447 
	C83.041054,146.119583 57.879299,146.052170 32.719139,145.954285 
	C27.757557,145.934998 22.801455,145.135269 17.837023,145.055222 
	C12.030390,144.961563 10.331523,147.166306 11.121668,152.734940 
	C11.562609,155.842514 11.972359,158.992477 11.956975,162.121201 
	C11.680249,218.403229 11.336366,274.684906 11.006862,330.966675 
	C9.271287,330.970337 7.535713,330.974030 5.411756,330.622589 
	C5.063349,329.820435 5.103325,329.373413 5.268974,328.834717 
	C5.540851,328.418213 5.432305,328.182831 5.030279,327.567261 
	C5.015218,265.052368 5.038890,203.007065 5.310605,140.793015 
	C5.788770,140.292404 6.018892,139.960526 6.600570,139.440613 
	C8.444527,139.180496 9.936902,139.046066 11.429331,139.045471 
	C48.385258,139.030746 85.341248,139.053757 122.296951,138.959671 
	C124.208206,138.954819 126.116974,137.971008 128.026901,137.442963 
	C128.046005,127.691048 128.376877,117.925644 127.956093,108.192749 
	C127.737236,103.130516 129.285904,99.465126 134.106110,97.394981 
	C141.817734,94.083069 149.391083,90.434135 157.181137,87.324059 
	C165.563095,83.977684 174.200104,81.271355 182.589951,77.943230 
	C189.756561,75.100357 196.655457,71.584694 203.812210,68.714256 
	C210.373566,66.082611 217.089462,63.815025 223.830688,61.682316 
	C224.599777,61.438999 226.791367,62.991558 226.910004,63.896660 
	C227.272141,66.659500 226.943649,69.512871 226.305023,72.624390 
	C225.357758,73.152428 224.989395,73.387077 224.621033,73.621719 
z"/>
<path fill="#30201F" opacity="1.000000" stroke="none" 
	d="
M11.268381,330.880127 
	C11.336366,274.684906 11.680249,218.403229 11.956975,162.121201 
	C11.972359,158.992477 11.562609,155.842514 11.121668,152.734940 
	C10.331523,147.166306 12.030390,144.961563 17.837023,145.055222 
	C22.801455,145.135269 27.757557,145.934998 32.719139,145.954285 
	C57.879299,146.052170 83.041054,146.119583 108.199821,145.908447 
	C113.943123,145.860275 119.668404,144.245804 125.417503,144.131241 
	C130.340927,144.033142 135.279785,145.133606 140.225586,145.534332 
	C142.316666,145.703751 144.621826,145.942963 146.517670,145.270615 
	C151.094620,143.647446 152.910156,144.582550 152.969803,149.574158 
	C153.075317,158.404083 152.752274,167.245316 153.075729,176.064682 
	C153.377548,184.294464 154.601456,192.493042 154.834671,200.721939 
	C155.043625,208.094421 154.460541,215.489639 154.215576,222.874451 
	C154.171494,224.203415 153.970108,225.534088 154.015427,226.858002 
	C154.308060,235.406967 154.901581,243.954193 154.904434,252.502167 
	C154.907394,261.383545 154.130875,270.264526 154.108154,279.146759 
	C154.085846,287.862610 154.705292,296.578491 154.796661,305.296936 
	C154.838089,309.250763 154.170105,313.206909 154.032501,317.169250 
	C153.896667,321.080536 154.024094,325.000977 153.683319,329.368652 
	C152.879135,329.883667 152.427628,329.947449 151.712189,329.952209 
	C151.275421,329.841888 151.102600,329.790497 150.965469,329.291687 
	C151.003021,270.721802 151.007446,212.599350 151.002472,154.476883 
	C151.002014,149.081863 149.769958,147.875137 144.214096,148.082230 
	C141.904190,148.168365 139.607239,148.879318 137.305771,148.872040 
	C98.020752,148.747726 58.735996,148.537735 19.450979,148.411240 
	C16.331631,148.401215 13.831869,148.919617 13.844557,153.362640 
	C14.012439,212.150070 14.007696,270.937988 13.780475,329.799561 
	C13.335855,329.914978 13.156855,329.956635 12.977856,329.998322 
	C12.495206,330.263397 12.012554,330.528473 11.268381,330.880127 
z"/>
<path fill="#302D2C" opacity="1.000000" stroke="none" 
	d="
M226.043106,320.004700 
	C215.282669,319.927094 204.490738,319.697327 193.703308,319.830536 
	C189.691299,319.880066 188.076340,318.772919 188.204407,314.492157 
	C188.482635,305.191742 188.461533,295.872101 188.200546,286.570465 
	C188.082047,282.346954 189.630432,281.127655 193.690765,281.212952 
	C204.158340,281.432831 214.633698,281.281616 225.562485,281.151794 
	C226.019012,281.024872 226.108032,281.317810 225.970139,281.949188 
	C225.851028,290.533325 225.816803,298.486847 225.935654,306.438110 
	C225.957977,307.931702 226.591370,309.416138 226.942780,310.904816 
	C226.973282,313.009155 227.003784,315.113495 226.668823,317.766846 
	C226.210266,318.896301 226.117188,319.476746 226.024109,320.057220 
	C226.024094,320.057220 226.013412,319.996643 226.043106,320.004700 
M194.807724,301.490967 
	C194.807724,305.241669 194.807724,308.992401 194.807724,312.786316 
	C203.555740,312.786316 211.601379,312.786316 219.859131,312.786316 
	C219.859131,304.454102 219.859131,296.428619 219.859131,288.098145 
	C211.528717,288.098145 203.499161,288.098145 194.807724,288.098145 
	C194.807724,292.307892 194.807724,296.403473 194.807724,301.490967 
z"/>
<path fill="#343130" opacity="1.000000" stroke="none" 
	d="
M226.059265,268.005890 
	C220.115875,267.882629 214.143814,267.711212 208.170532,267.618164 
	C203.505737,267.545502 198.836533,267.460083 194.174622,267.582794 
	C189.522446,267.705231 187.897049,265.841278 188.113525,261.034729 
	C188.517960,252.054398 188.353607,243.039993 188.160736,234.045456 
	C188.085358,230.530457 188.873398,228.907196 192.826599,229.014359 
	C203.813583,229.312210 214.810455,229.245193 226.354279,229.360901 
	C226.952820,240.969879 227.000488,252.540298 226.667847,264.713074 
	C226.203232,266.229004 226.118927,267.142578 226.034637,268.056122 
	C226.034637,268.056122 226.030060,267.991516 226.059265,268.005890 
M219.603745,260.584625 
	C219.603745,252.410614 219.603745,244.236603 219.603745,235.946686 
	C211.320251,235.946686 203.312332,235.946686 195.003738,235.946686 
	C195.003738,244.495239 195.003738,252.739594 195.283127,261.747162 
	C195.453781,262.022614 195.618973,262.535339 195.795868,262.539429 
	C203.412811,262.714905 211.030731,262.854248 218.649155,262.910797 
	C218.789719,262.911865 218.938095,261.861877 219.603745,260.584625 
z"/>
<path fill="#302D2D" opacity="1.000000" stroke="none" 
	d="
M226.746429,215.487045 
	C215.055145,215.895828 203.572983,215.935867 192.092636,216.102417 
	C189.362381,216.142014 188.195358,215.232056 188.225433,212.368729 
	C188.330368,202.379944 188.338913,192.388443 188.219193,182.399963 
	C188.180618,179.180695 189.387665,177.944534 192.616608,177.987808 
	C203.436005,178.132828 214.257767,178.101654 225.545135,178.075897 
	C226.367325,179.433624 227.024719,180.852112 227.030701,182.273346 
	C227.076935,193.236801 226.997040,204.200790 226.746429,215.487045 
M194.827271,189.629974 
	C194.827271,196.370483 194.827271,203.110977 194.827271,210.129547 
	C202.798828,210.129547 209.932419,210.224243 217.057770,210.025024 
	C218.097717,209.995941 219.959976,208.589844 219.983475,207.778671 
	C220.207672,200.042709 220.117325,192.297607 220.117325,184.454636 
	C211.318054,184.454636 203.268112,184.454636 195.039627,184.454636 
	C194.958405,186.054184 194.892197,187.358231 194.827271,189.629974 
z"/>
<path fill="#555555" opacity="1.000000" stroke="none" 
	d="
M5.143301,328.926392 
	C5.103325,329.373413 5.063349,329.820435 4.978308,330.600769 
	C4.623473,329.730225 4.043522,328.526489 4.042660,327.322388 
	C3.998079,265.042023 4.001759,202.761612 4.014385,140.481216 
	C4.014518,139.829010 4.200844,139.176834 4.670609,138.559326 
	C5.079862,138.896164 5.062511,139.195068 5.004176,139.858643 
	C5.033810,140.471634 5.048185,140.716690 5.062562,140.961761 
	C5.038890,203.007065 5.015218,265.052368 5.024419,327.791534 
	C5.057290,328.485413 5.143301,328.926392 5.143301,328.926392 
z"/>
<path fill="#B68789" opacity="1.000000" stroke="none" 
	d="
M13.193964,330.376312 
	C13.156855,329.956635 13.335855,329.914978 14.234377,329.879364 
	C47.285011,329.908997 79.616127,329.955444 111.947235,329.944977 
	C124.941429,329.940765 137.935593,329.811493 150.929779,329.739136 
	C151.102600,329.790497 151.275421,329.841888 151.712006,330.171600 
	C151.975769,330.449951 151.908875,330.883606 151.908875,330.883606 
	C105.742607,330.840485 59.576340,330.797394 13.193964,330.376312 
z"/>
<path fill="#777777" opacity="1.000000" stroke="none" 
	d="
M4.988918,139.490723 
	C5.062511,139.195068 5.079862,138.896164 5.047791,138.368713 
	C41.775440,138.095932 78.496277,138.051590 115.217087,137.996323 
	C119.203506,137.990326 123.189827,137.921051 127.601547,137.662048 
	C126.116974,137.971008 124.208206,138.954819 122.296951,138.959671 
	C85.341248,139.053757 48.385258,139.030746 11.429331,139.045471 
	C9.936902,139.046066 8.444527,139.180496 6.290508,139.351715 
	C5.415566,139.464157 5.202242,139.477432 4.988918,139.490723 
z"/>
<path fill="#494744" opacity="1.000000" stroke="none" 
	d="
M225.074890,126.914261 
	C225.074875,126.914261 225.417130,126.833031 225.592743,126.841957 
	C226.180115,128.253204 226.944351,129.654724 226.947571,131.057983 
	C226.972443,141.850677 226.849625,152.643707 226.455475,163.709564 
	C225.933228,163.955536 225.728149,163.928589 225.209564,163.624680 
	C224.896027,163.347717 224.881912,162.893250 224.929565,162.581833 
	C224.981995,161.849976 224.986786,161.429520 225.008041,160.550385 
	C225.013016,156.723557 225.001541,153.355423 224.996918,149.525467 
	C224.999359,145.046677 224.994949,141.029694 225.010132,136.609589 
	C225.008743,135.130814 224.987717,134.055191 224.971527,132.547974 
	C225.009186,130.382339 225.042038,128.648300 225.074890,126.914261 
z"/>
<path fill="#C1C1BB" opacity="1.000000" stroke="none" 
	d="
M160.949524,329.961914 
	C160.949524,329.961914 161.350021,329.858704 161.550171,329.807312 
	C177.803040,329.830200 193.855804,329.897064 209.908386,329.991272 
	C211.382507,329.999908 212.855621,330.183228 214.624329,330.573730 
	C197.287521,330.890717 179.655579,330.919403 161.525864,330.680389 
	C161.028091,330.412720 160.949524,329.961914 160.949524,329.961914 
z"/>
<path fill="#AFAFA4" opacity="1.000000" stroke="none" 
	d="
M226.966125,310.442841 
	C226.591370,309.416138 225.957977,307.931702 225.935654,306.438110 
	C225.816803,298.486847 225.851028,290.533325 225.906982,282.088623 
	C226.320602,283.623352 226.920273,285.645966 226.951691,287.677399 
	C227.066666,295.110291 226.992432,302.546143 226.966125,310.442841 
z"/>
<path fill="#A5A3A2" opacity="1.000000" stroke="none" 
	d="
M225.930695,115.492233 
	C225.707382,108.198090 225.534042,100.440559 225.621719,92.366455 
	C225.915390,99.709534 225.948029,107.369202 225.930695,115.492233 
z"/>
<path fill="#65605F" opacity="1.000000" stroke="none" 
	d="
M160.518005,329.909332 
	C160.949524,329.961914 161.028091,330.412720 161.065247,330.638489 
	C158.340958,330.929535 155.579529,330.994781 152.363480,330.971832 
	C151.908875,330.883606 151.975769,330.449951 151.975952,330.230591 
	C152.427628,329.947449 152.879135,329.883667 153.667786,329.760986 
	C156.032135,329.753632 158.059311,329.805206 160.518005,329.909332 
z"/>
<path fill="#8F8987" opacity="1.000000" stroke="none" 
	d="
M226.340393,267.900238 
	C226.118927,267.142578 226.203232,266.229004 226.626526,265.183472 
	C226.859055,265.949127 226.752609,266.846741 226.340393,267.900238 
z"/>
<path fill="#A5A3A2" opacity="1.000000" stroke="none" 
	d="
M225.941620,79.598671 
	C225.740646,79.112350 225.589661,78.262901 225.665039,77.228439 
	C225.924789,77.774132 225.958206,78.504837 225.941620,79.598671 
z"/>
<path fill="#8F8987" opacity="1.000000" stroke="none" 
	d="
M226.294220,319.932678 
	C226.117188,319.476746 226.210266,318.896301 226.613449,318.214966 
	C226.803802,318.678741 226.684067,319.243439 226.294220,319.932678 
z"/>
<path fill="#A5A3A2" opacity="1.000000" stroke="none" 
	d="
M225.903198,124.726929 
	C225.481262,124.764374 225.400330,124.513184 225.743073,124.119034 
	C225.883240,124.037537 225.960693,124.499763 225.903198,124.726929 
z"/>
<path fill="#8F8987" opacity="1.000000" stroke="none" 
	d="
M224.738617,73.736496 
	C224.989395,73.387077 225.357758,73.152428 226.061066,72.948013 
	C226.282715,73.141777 226.169434,73.305305 225.762375,73.750595 
	C225.468597,74.032372 225.096283,74.075623 225.096283,74.075623 
	C225.096283,74.075623 224.856186,73.851265 224.738617,73.736496 
z"/>
<path fill="#A5A3A2" opacity="1.000000" stroke="none" 
	d="
M225.168411,74.270302 
	C225.096283,74.075623 225.468597,74.032372 225.655975,74.029381 
	C225.843338,74.026390 225.961716,74.492683 225.923599,74.730209 
	C225.605362,74.883629 225.390381,74.716049 225.168411,74.270302 
z"/>
<path fill="#2C2927" opacity="1.000000" stroke="none" 
	d="
M224.990051,149.987274 
	C225.001541,153.355423 225.013016,156.723557 224.796753,160.685806 
	C224.673294,161.817688 224.777603,162.355469 224.881912,162.893250 
	C224.881912,162.893250 224.896027,163.347717 224.903412,163.574463 
	C212.962311,163.801224 201.013824,163.801224 188.322098,163.801224 
	C188.322098,155.558182 188.253311,147.624466 188.350403,139.692780 
	C188.400833,135.572372 187.310623,130.297714 189.407028,127.701706 
	C191.098862,125.606689 196.791046,126.599571 200.716309,126.482353 
	C207.529037,126.278915 214.347763,126.276237 221.600922,126.697708 
	C222.136917,129.575562 218.987579,133.592926 224.966705,132.979553 
	C224.987717,134.055191 225.008743,135.130814 224.729584,136.908859 
	C224.616287,141.736603 224.803177,145.861938 224.990051,149.987274 
M202.604004,157.629623 
	C208.348343,157.629623 214.092667,157.629623 219.804718,157.629623 
	C219.804718,148.722549 219.804718,140.671906 219.804718,132.483246 
	C211.347916,132.483246 203.288589,132.483246 195.038330,132.483246 
	C195.038330,140.875107 195.038330,148.960709 195.038330,157.628616 
	C197.397034,157.628616 199.517441,157.628616 202.604004,157.629623 
z"/>
<path fill="#65605F" opacity="1.000000" stroke="none" 
	d="
M160.953232,138.511719 
	C155.264267,138.763855 149.455383,138.638947 143.323059,138.260590 
	C148.944199,138.049667 154.888748,138.092178 160.953232,138.511719 
z"/>
<path fill="#1B1716" opacity="1.000000" stroke="none" 
	d="
M224.971527,132.547974 
	C218.987579,133.592926 222.136917,129.575562 222.050812,126.847717 
	C222.906891,126.485405 223.750031,126.481422 224.834030,126.695847 
	C225.042038,128.648300 225.009186,130.382339 224.971527,132.547974 
z"/>
<path fill="#171717" opacity="1.000000" stroke="none" 
	d="
M5.004176,139.858643 
	C5.202242,139.477432 5.415566,139.464157 5.938951,139.539764 
	C6.018892,139.960526 5.788770,140.292404 5.310605,140.793015 
	C5.048185,140.716690 5.033810,140.471634 5.004176,139.858643 
z"/>
<path fill="#171717" opacity="1.000000" stroke="none" 
	d="
M5.268974,328.834717 
	C5.143301,328.926392 5.057290,328.485413 5.063150,328.261139 
	C5.432305,328.182831 5.540851,328.418213 5.268974,328.834717 
z"/>
<path fill="#87232C" opacity="1.000000" stroke="none" 
	d="
M150.965469,329.291687 
	C137.935593,329.811493 124.941429,329.940765 111.947235,329.944977 
	C79.616127,329.955444 47.285011,329.908997 14.499996,329.805603 
	C14.007696,270.937988 14.012439,212.150070 13.844557,153.362640 
	C13.831869,148.919617 16.331631,148.401215 19.450979,148.411240 
	C58.735996,148.537735 98.020752,148.747726 137.305771,148.872040 
	C139.607239,148.879318 141.904190,148.168365 144.214096,148.082230 
	C149.769958,147.875137 151.002014,149.081863 151.002472,154.476883 
	C151.007446,212.599350 151.003021,270.721802 150.965469,329.291687 
M93.235893,281.888000 
	C92.461006,282.239044 91.686127,282.590088 90.153793,283.196533 
	C89.805222,283.720886 89.156464,284.242920 89.152382,284.769958 
	C89.069595,295.471436 89.001564,306.174347 89.164085,316.873474 
	C89.175461,317.621918 91.003830,318.342712 92.800880,319.058777 
	C93.885117,319.023712 94.969353,318.988647 96.972527,319.022278 
	C101.622231,319.009247 106.271942,318.996216 111.851471,319.037781 
	C115.567604,319.028137 119.283737,319.018494 123.809929,319.067596 
	C124.896217,319.060577 125.982506,319.053558 127.831924,318.805450 
	C128.206009,318.117889 128.900299,317.432953 128.905914,316.742401 
	C128.983643,307.161499 129.022675,297.579071 128.892670,287.999451 
	C128.878693,286.968964 127.748123,285.953613 127.060646,284.470093 
	C127.060646,284.470093 126.975143,284.010742 126.872086,283.257874 
	C125.245728,282.847260 123.619377,282.436646 121.057457,281.982086 
	C113.059258,281.950348 105.061050,281.918610 96.907875,281.272797 
	C95.905128,281.465881 94.902390,281.658966 93.235893,281.888000 
M41.712154,319.970551 
	C51.189819,319.960907 60.668190,319.882385 70.144760,319.979431 
	C73.408379,320.012848 75.086761,319.017975 75.041840,315.439392 
	C74.916634,305.464417 74.943176,295.486633 75.013031,285.510681 
	C75.034935,282.381287 73.819992,280.977081 70.588036,281.010345 
	C61.111320,281.108032 51.632923,281.068268 42.155312,281.039917 
	C38.615993,281.029327 36.985714,282.766937 36.994671,286.246368 
	C37.020355,296.222778 37.073677,306.199677 36.996689,316.175446 
	C36.975521,318.918121 37.957703,320.251831 41.712154,319.970551 
M127.866852,214.095169 
	C127.906792,203.773941 127.865906,193.451401 128.031555,183.132187 
	C128.087723,179.633331 127.061279,177.906952 123.230484,177.971024 
	C113.743179,178.129730 104.249878,178.118225 94.762154,177.971054 
	C90.978691,177.912384 89.869736,179.581238 89.925804,183.116974 
	C90.073647,192.438202 90.080368,201.764679 89.938873,211.085968 
	C89.883125,214.758240 91.315735,216.116333 94.957916,216.062546 
	C104.612251,215.919998 114.270454,216.055038 123.926208,215.972992 
	C125.151176,215.962585 126.370743,215.315674 127.866852,214.095169 
M74.993408,254.486267 
	C74.991882,247.496979 74.918808,240.506638 75.021225,233.518875 
	C75.067352,230.372177 73.850044,228.969971 70.620834,228.997284 
	C60.803310,229.080307 50.984390,229.054413 41.166435,228.997528 
	C38.192711,228.980301 36.982235,230.347794 36.996471,233.251862 
	C37.046238,243.402679 36.916683,253.556274 37.158600,263.701599 
	C37.185410,264.825958 39.127235,266.817078 40.237068,266.857330 
	C48.323662,267.150452 56.438602,267.356201 64.517593,266.991608 
	C75.007347,266.518188 74.996590,266.279907 74.993408,254.486267 
M114.490356,267.037567 
	C117.647736,267.032379 120.810509,266.910339 123.960938,267.055695 
	C126.964767,267.194305 128.061935,265.995148 128.021790,262.972992 
	C127.891541,253.170074 127.888138,243.363403 128.008377,233.560303 
	C128.051804,230.019928 126.447624,228.934372 123.156227,228.971909 
	C113.685135,229.079956 104.211319,229.091980 94.740288,228.986923 
	C91.371864,228.949570 89.909157,230.215271 89.945633,233.664856 
	C90.049294,243.468353 90.062805,253.274841 89.928528,263.077637 
	C89.886215,266.166748 91.096619,267.136078 94.052132,267.072113 
	C100.530052,266.931915 107.013222,267.034393 114.490356,267.037567 
M74.986076,207.436615 
	C74.987045,199.292252 74.882233,191.145889 75.037521,183.004471 
	C75.106110,179.409286 73.842163,177.896103 70.126038,177.956451 
	C60.654457,178.110275 51.177898,178.085617 41.705200,177.973953 
	C38.311108,177.933960 36.915833,179.232529 36.958080,182.674408 
	C37.076389,192.313217 37.125721,201.956909 36.934971,211.593384 
	C36.863876,215.184738 38.273712,216.163544 41.632431,216.098907 
	C50.272278,215.932617 58.917370,216.044037 67.560356,216.034103 
	C74.975945,216.025589 74.975937,216.019241 74.986076,207.436615 
z"/>
<path fill="#FAFAF8" opacity="1.000000" stroke="none" 
	d="
M194.807724,300.995026 
	C194.807724,296.403473 194.807724,292.307892 194.807724,288.098145 
	C203.499161,288.098145 211.528717,288.098145 219.859131,288.098145 
	C219.859131,296.428619 219.859131,304.454102 219.859131,312.786316 
	C211.601379,312.786316 203.555740,312.786316 194.807724,312.786316 
	C194.807724,308.992401 194.807724,305.241669 194.807724,300.995026 
z"/>
<path fill="#F9F9F7" opacity="1.000000" stroke="none" 
	d="
M195.003738,260.983948 
	C195.003738,252.739594 195.003738,244.495239 195.003738,235.946686 
	C203.312332,235.946686 211.320251,235.946686 219.603745,235.946686 
	C219.603745,244.236603 219.603745,252.410614 218.875732,260.860474 
	C210.433075,261.085541 202.718399,261.034729 195.003738,260.983948 
z"/>
<path fill="#131210" opacity="1.000000" stroke="none" 
	d="
M195.143433,261.365540 
	C202.718399,261.034729 210.433075,261.085541 218.615280,261.219299 
	C218.938095,261.861877 218.789719,262.911865 218.649155,262.910797 
	C211.030731,262.854248 203.412811,262.714905 195.795868,262.539429 
	C195.618973,262.535339 195.453781,262.022614 195.143433,261.365540 
z"/>
<path fill="#F9F7F8" opacity="1.000000" stroke="none" 
	d="
M194.826630,189.146118 
	C194.892197,187.358231 194.958405,186.054184 195.039627,184.454636 
	C203.268112,184.454636 211.318054,184.454636 220.117325,184.454636 
	C220.117325,192.297607 220.207672,200.042709 219.983475,207.778671 
	C219.959976,208.589844 218.097717,209.995941 217.057770,210.025024 
	C209.932419,210.224243 202.798828,210.129547 194.827271,210.129547 
	C194.827271,203.110977 194.827271,196.370483 194.826630,189.146118 
z"/>
<path fill="#1B1716" opacity="1.000000" stroke="none" 
	d="
M224.996918,149.525467 
	C224.803177,145.861938 224.616287,141.736603 224.709961,137.311981 
	C224.994949,141.029694 224.999359,145.046677 224.996918,149.525467 
z"/>
<path fill="#1B1716" opacity="1.000000" stroke="none" 
	d="
M224.929565,162.581833 
	C224.777603,162.355469 224.673294,161.817688 224.780273,161.144501 
	C224.986786,161.429520 224.981995,161.849976 224.929565,162.581833 
z"/>
<path fill="#F6F5F3" opacity="1.000000" stroke="none" 
	d="
M202.120926,157.629120 
	C199.517441,157.628616 197.397034,157.628616 195.038330,157.628616 
	C195.038330,148.960709 195.038330,140.875107 195.038330,132.483246 
	C203.288589,132.483246 211.347916,132.483246 219.804718,132.483246 
	C219.804718,140.671906 219.804718,148.722549 219.804718,157.629623 
	C214.092667,157.629623 208.348343,157.629623 202.120926,157.629120 
z"/>
<path fill="#382525" opacity="1.000000" stroke="none" 
	d="
M41.243416,319.967285 
	C37.957703,320.251831 36.975521,318.918121 36.996689,316.175446 
	C37.073677,306.199677 37.020355,296.222778 36.994671,286.246368 
	C36.985714,282.766937 38.615993,281.029327 42.155312,281.039917 
	C51.632923,281.068268 61.111320,281.108032 70.588036,281.010345 
	C73.819992,280.977081 75.034935,282.381287 75.013031,285.510681 
	C74.943176,295.486633 74.916634,305.464417 75.041840,315.439392 
	C75.086761,319.017975 73.408379,320.012848 70.144760,319.979431 
	C60.668190,319.882385 51.189819,319.960907 41.243416,319.967285 
M50.591286,287.747009 
	C48.191563,288.754395 43.721764,285.498138 43.367699,290.290863 
	C42.821930,297.678528 43.224003,305.136200 43.224003,312.862152 
	C51.922405,312.862152 60.112305,312.862152 68.880516,312.862152 
	C68.880516,305.152435 68.993683,297.726227 68.732033,290.313232 
	C68.700623,289.423462 66.676125,287.943390 65.505173,287.870880 
	C60.873947,287.583954 56.214748,287.748505 50.591286,287.747009 
z"/>
<path fill="#332122" opacity="1.000000" stroke="none" 
	d="
M127.729828,214.529404 
	C126.370743,215.315674 125.151176,215.962585 123.926208,215.972992 
	C114.270454,216.055038 104.612251,215.919998 94.957916,216.062546 
	C91.315735,216.116333 89.883125,214.758240 89.938873,211.085968 
	C90.080368,201.764679 90.073647,192.438202 89.925804,183.116974 
	C89.869736,179.581238 90.978691,177.912384 94.762154,177.971054 
	C104.249878,178.118225 113.743179,178.129730 123.230484,177.971024 
	C127.061279,177.906952 128.087723,179.633331 128.031555,183.132187 
	C127.865906,193.451401 127.906792,203.773941 127.729828,214.529404 
M121.761047,187.832932 
	C121.061150,186.600128 120.396614,184.320801 119.655899,184.295776 
	C111.918953,184.034332 104.169785,184.134521 96.150063,184.134521 
	C96.150063,192.219421 96.038239,199.536362 96.267403,206.842606 
	C96.302864,207.973312 97.868492,209.981277 98.781326,210.013168 
	C106.222351,210.273010 113.676414,210.159393 121.763763,210.159393 
	C121.763763,202.661850 121.763763,195.715454 121.761047,187.832932 
z"/>
<path fill="#382423" opacity="1.000000" stroke="none" 
	d="
M74.993423,254.982300 
	C74.996590,266.279907 75.007347,266.518188 64.517593,266.991608 
	C56.438602,267.356201 48.323662,267.150452 40.237068,266.857330 
	C39.127235,266.817078 37.185410,264.825958 37.158600,263.701599 
	C36.916683,253.556274 37.046238,243.402679 36.996471,233.251862 
	C36.982235,230.347794 38.192711,228.980301 41.166435,228.997528 
	C50.984390,229.054413 60.803310,229.080307 70.620834,228.997284 
	C73.850044,228.969971 75.067352,230.372177 75.021225,233.518875 
	C74.918808,240.506638 74.991882,247.496979 74.993423,254.982300 
M49.294548,262.204834 
	C53.707539,262.478394 58.121700,262.956848 62.532974,262.931549 
	C64.483612,262.920380 66.428398,261.888550 68.483528,260.612427 
	C68.633926,253.146713 68.899658,245.679276 68.789520,238.217407 
	C68.775665,237.278870 66.812912,235.615753 65.701294,235.570816 
	C59.222305,235.308960 52.724506,235.324417 46.242035,235.529678 
	C45.211708,235.562332 43.378239,237.005310 43.353416,237.839050 
	C43.127663,245.422424 43.220963,253.015274 43.220963,260.609222 
	C45.507797,260.975311 47.116653,261.232880 49.294548,262.204834 
z"/>
<path fill="#332221" opacity="1.000000" stroke="none" 
	d="
M113.992302,267.037689 
	C107.013222,267.034393 100.530052,266.931915 94.052132,267.072113 
	C91.096619,267.136078 89.886215,266.166748 89.928528,263.077637 
	C90.062805,253.274841 90.049294,243.468353 89.945633,233.664856 
	C89.909157,230.215271 91.371864,228.949570 94.740288,228.986923 
	C104.211319,229.091980 113.685135,229.079956 123.156227,228.971909 
	C126.447624,228.934372 128.051804,230.019928 128.008377,233.560303 
	C127.888138,243.363403 127.891541,253.170074 128.021790,262.972992 
	C128.061935,265.995148 126.964767,267.194305 123.960938,267.055695 
	C120.810509,266.910339 117.647736,267.032379 113.992302,267.037689 
M97.241051,262.099579 
	C104.807930,262.298615 112.374443,262.522430 119.942604,262.635925 
	C120.403641,262.642822 120.877785,261.775269 121.459976,260.614258 
	C121.562691,253.171722 121.739182,245.728546 121.675880,238.287415 
	C121.667862,237.344208 120.423637,235.614395 119.718102,235.596558 
	C111.992233,235.401398 104.259598,235.474197 96.667534,235.474197 
	C96.667534,244.559006 96.667534,252.958679 97.241051,262.099579 
z"/>
<path fill="#3A2325" opacity="1.000000" stroke="none" 
	d="
M74.986046,207.923691 
	C74.975937,216.019241 74.975945,216.025589 67.560356,216.034103 
	C58.917370,216.044037 50.272278,215.932617 41.632431,216.098907 
	C38.273712,216.163544 36.863876,215.184738 36.934971,211.593384 
	C37.125721,201.956909 37.076389,192.313217 36.958080,182.674408 
	C36.915833,179.232529 38.311108,177.933960 41.705200,177.973953 
	C51.177898,178.085617 60.654457,178.110275 70.126038,177.956451 
	C73.842163,177.896103 75.106110,179.409286 75.037521,183.004471 
	C74.882233,191.145889 74.987045,199.292252 74.986046,207.923691 
M43.915752,210.998047 
	C43.408581,211.729965 42.901409,212.461884 42.540882,212.982178 
	C51.938126,212.982178 61.154652,212.982178 71.142921,212.982178 
	C69.967163,211.250320 69.434601,210.465881 68.815887,208.787064 
	C68.553299,200.521149 68.290710,192.255249 67.793541,183.211838 
	C67.455315,182.874680 67.122131,182.248886 66.778107,182.242874 
	C59.542336,182.116257 52.305153,182.030396 45.069126,182.076080 
	C44.709892,182.078354 44.358635,183.344147 43.615601,184.757446 
	C43.802181,193.288696 43.988758,201.819962 43.915752,210.998047 
z"/>
<path fill="#271D1A" opacity="1.000000" stroke="none" 
	d="
M96.053589,318.953552 
	C94.969353,318.988647 93.885117,319.023712 92.262154,318.718964 
	C91.494041,307.260040 91.264664,296.140930 91.370377,284.975342 
	C92.818069,283.984680 93.930687,283.040436 95.380371,282.069763 
	C96.165909,281.991150 96.614380,281.939026 97.062851,281.886902 
	C105.061050,281.918610 113.059258,281.950348 121.612511,282.361511 
	C123.770088,283.164185 125.372620,283.587463 126.975143,284.010742 
	C126.975143,284.010742 127.060646,284.470093 127.049706,285.174133 
	C127.018204,296.245270 126.997635,306.612366 126.606949,316.986694 
	C125.157837,317.665619 124.078857,318.337250 122.999878,319.008881 
	C119.283737,319.018494 115.567604,319.028137 111.409607,318.656219 
	C111.381660,315.347351 112.512184,313.730835 115.830635,315.218079 
	C116.219025,315.392120 117.277290,314.071472 118.395859,313.339661 
	C119.535881,313.248444 120.305061,313.261322 121.246857,313.455261 
	C121.623909,313.093475 121.828346,312.550629 121.940193,311.546570 
	C121.901840,303.723419 121.956085,296.361481 122.251205,288.762024 
	C121.385803,287.691895 120.303619,286.179352 119.169273,286.139160 
	C112.703918,285.910126 106.224869,285.970703 99.753952,286.102722 
	C98.811378,286.121948 97.887390,287.052032 96.700607,287.927673 
	C96.365356,296.505890 96.284286,304.717072 95.883652,312.951508 
	C95.103661,313.503387 94.163467,314.165314 94.266800,314.537415 
	C94.688972,316.057648 95.429993,317.489288 96.053589,318.953552 
z"/>
<path fill="#363233" opacity="1.000000" stroke="none" 
	d="
M96.513054,318.987915 
	C95.429993,317.489288 94.688972,316.057648 94.266800,314.537415 
	C94.163467,314.165314 95.103661,313.503387 96.337509,312.997345 
	C104.082291,313.161224 111.053650,313.302460 118.025009,313.443726 
	C117.277290,314.071472 116.219025,315.392120 115.830635,315.218079 
	C112.512184,313.730835 111.381660,315.347351 110.944695,318.628906 
	C106.271942,318.996216 101.622231,319.009247 96.513054,318.987915 
z"/>
<path fill="#5E2227" opacity="1.000000" stroke="none" 
	d="
M91.035278,285.021820 
	C91.264664,296.140930 91.494041,307.260040 91.855347,318.727783 
	C91.003830,318.342712 89.175461,317.621918 89.164085,316.873474 
	C89.001564,306.174347 89.069595,295.471436 89.152382,284.769958 
	C89.156464,284.242920 89.805222,283.720886 90.564926,283.415405 
	C90.995804,284.096771 91.015541,284.559296 91.035278,285.021820 
z"/>
<path fill="#5E2227" opacity="1.000000" stroke="none" 
	d="
M126.977066,316.979431 
	C126.997635,306.612366 127.018204,296.245270 127.087143,285.404724 
	C127.748123,285.953613 128.878693,286.968964 128.892670,287.999451 
	C129.022675,297.579071 128.983643,307.161499 128.905914,316.742401 
	C128.900299,317.432953 128.206009,318.117889 127.427612,318.581390 
	C127.007889,317.898041 126.992477,317.438721 126.977066,316.979431 
z"/>
<path fill="#3A191A" opacity="1.000000" stroke="none" 
	d="
M126.923615,283.634308 
	C125.372620,283.587463 123.770088,283.164185 122.080292,282.383453 
	C123.619377,282.436646 125.245728,282.847260 126.923615,283.634308 
z"/>
<path fill="#3A191A" opacity="1.000000" stroke="none" 
	d="
M91.370369,284.975342 
	C91.015541,284.559296 90.995804,284.096771 90.943649,283.287659 
	C91.686127,282.590088 92.461006,282.239044 93.853073,281.936798 
	C94.661263,282.022491 94.852287,282.059357 95.043304,282.096222 
	C93.930687,283.040436 92.818069,283.984680 91.370369,284.975342 
z"/>
<path fill="#3A191A" opacity="1.000000" stroke="none" 
	d="
M126.606949,316.986694 
	C126.992477,317.438721 127.007889,317.898041 127.046043,318.701935 
	C125.982506,319.053558 124.896217,319.060577 123.404907,319.038239 
	C124.078857,318.337250 125.157837,317.665619 126.606949,316.986694 
z"/>
<path fill="#5E2227" opacity="1.000000" stroke="none" 
	d="
M95.380371,282.069763 
	C94.852287,282.059357 94.661263,282.022491 94.184944,281.918823 
	C94.902390,281.658966 95.905128,281.465881 96.985367,281.579834 
	C96.614380,281.939026 96.165909,281.991150 95.380371,282.069763 
z"/>
<path fill="#F5F4F3" opacity="1.000000" stroke="none" 
	d="
M51.078606,287.746338 
	C56.214748,287.748505 60.873947,287.583954 65.505173,287.870880 
	C66.676125,287.943390 68.700623,289.423462 68.732033,290.313232 
	C68.993683,297.726227 68.880516,305.152435 68.880516,312.862152 
	C60.112305,312.862152 51.922405,312.862152 43.224003,312.862152 
	C43.224003,305.136200 42.821930,297.678528 43.367699,290.290863 
	C43.721764,285.498138 48.191563,288.754395 51.078606,287.746338 
z"/>
<path fill="#F5F4F3" opacity="1.000000" stroke="none" 
	d="
M121.762405,188.300995 
	C121.763763,195.715454 121.763763,202.661850 121.763763,210.159393 
	C113.676414,210.159393 106.222351,210.273010 98.781326,210.013168 
	C97.868492,209.981277 96.302864,207.973312 96.267403,206.842606 
	C96.038239,199.536362 96.150063,192.219421 96.150063,184.134521 
	C104.169785,184.134521 111.918953,184.034332 119.655899,184.295776 
	C120.396614,184.320801 121.061150,186.600128 121.762405,188.300995 
z"/>
<path fill="#F2F2F0" opacity="1.000000" stroke="none" 
	d="
M48.725513,261.490417 
	C47.116653,261.232880 45.507797,260.975311 43.220963,260.609222 
	C43.220963,253.015274 43.127663,245.422424 43.353416,237.839050 
	C43.378239,237.005310 45.211708,235.562332 46.242035,235.529678 
	C52.724506,235.324417 59.222305,235.308960 65.701294,235.570816 
	C66.812912,235.615753 68.775665,237.278870 68.789520,238.217407 
	C68.899658,245.679276 68.633926,253.146713 67.985947,260.912903 
	C61.234077,261.305695 54.979794,261.398041 48.725513,261.490417 
z"/>
<path fill="#161210" opacity="1.000000" stroke="none" 
	d="
M49.010033,261.847626 
	C54.979794,261.398041 61.234077,261.305695 67.932098,261.266724 
	C66.428398,261.888550 64.483612,262.920380 62.532974,262.931549 
	C58.121700,262.956848 53.707539,262.478394 49.010033,261.847626 
z"/>
<path fill="#F2F1F1" opacity="1.000000" stroke="none" 
	d="
M96.667534,261.358337 
	C96.667534,252.958679 96.667534,244.559006 96.667534,235.474197 
	C104.259598,235.474197 111.992233,235.401398 119.718102,235.596558 
	C120.423637,235.614395 121.667862,237.344208 121.675880,238.287415 
	C121.739182,245.728546 121.562691,253.171722 120.969650,260.915344 
	C112.542068,261.263733 104.604797,261.311035 96.667534,261.358337 
z"/>
<path fill="#151110" opacity="1.000000" stroke="none" 
	d="
M96.954292,261.728943 
	C104.604797,261.311035 112.542068,261.263733 120.912582,261.265503 
	C120.877785,261.775269 120.403641,262.642822 119.942604,262.635925 
	C112.374443,262.522430 104.807930,262.298615 96.954292,261.728943 
z"/>
<path fill="#F4F4F2" opacity="1.000000" stroke="none" 
	d="
M68.028122,183.989334 
	C68.290710,192.255249 68.553299,200.521149 68.446381,209.351227 
	C60.109695,210.060669 52.142517,210.205933 44.175339,210.351212 
	C43.988758,201.819962 43.802181,193.288696 44.277412,184.418335 
	C52.635521,184.049255 60.331821,184.019287 68.028122,183.989334 
z"/>
<path fill="#1B1A18" opacity="1.000000" stroke="none" 
	d="
M44.045547,210.674622 
	C52.142517,210.205933 60.109695,210.060669 68.489456,209.798431 
	C69.434601,210.465881 69.967163,211.250320 71.142921,212.982178 
	C61.154652,212.982178 51.938126,212.982178 42.540882,212.982178 
	C42.901409,212.461884 43.408581,211.729965 44.045547,210.674622 
z"/>
<path fill="#181614" opacity="1.000000" stroke="none" 
	d="
M67.910828,183.600586 
	C60.331821,184.019287 52.635521,184.049255 44.471443,184.050400 
	C44.358635,183.344147 44.709892,182.078354 45.069126,182.076080 
	C52.305153,182.030396 59.542336,182.116257 66.778107,182.242874 
	C67.122131,182.248886 67.455315,182.874680 67.910828,183.600586 
z"/>
<path fill="#F6F5F5" opacity="1.000000" stroke="none" 
	d="
M118.395859,313.339661 
	C111.053650,313.302460 104.082291,313.161224 96.657074,312.974121 
	C96.284286,304.717072 96.365356,296.505890 97.160843,288.036133 
	C103.593819,287.781677 109.315788,287.672150 115.029236,287.844757 
	C117.365768,287.915344 119.683853,288.596283 122.010330,288.999542 
	C121.956085,296.361481 121.901840,303.723419 121.742050,311.727478 
	C121.449074,312.671143 121.261658,312.972687 121.074234,313.274200 
	C120.305061,313.261322 119.535881,313.248444 118.395859,313.339661 
z"/>
<path fill="#363233" opacity="1.000000" stroke="none" 
	d="
M122.251205,288.762024 
	C119.683853,288.596283 117.365768,287.915344 115.029236,287.844757 
	C109.315788,287.672150 103.593819,287.781677 97.415039,287.669128 
	C97.887390,287.052032 98.811378,286.121948 99.753952,286.102722 
	C106.224869,285.970703 112.703918,285.910126 119.169273,286.139160 
	C120.303619,286.179352 121.385803,287.691895 122.251205,288.762024 
z"/>
<path fill="#363233" opacity="1.000000" stroke="none" 
	d="
M121.246857,313.455261 
	C121.261658,312.972687 121.449074,312.671143 121.834641,312.188690 
	C121.828346,312.550629 121.623909,313.093475 121.246857,313.455261 
z"/>
</svg>