<svg version="1.1" id="Layer_1" xmlns="http://www.w3.org/2000/svg" xmlns:xlink="http://www.w3.org/1999/xlink" x="0px" y="0px"
	 width="100%" viewBox="0 0 1201 301" enable-background="new 0 0 1201 301" xml:space="preserve">
<path fill="#FFFFFF" opacity="1.000000" stroke="none" 
	d="
M1202.000000,175.999985 
	C1202.000000,217.983139 1202.000000,259.966278 1202.000000,302.000000 
	C890.975098,302.000000 579.950195,302.000000 268.462646,301.531342 
	C268.000000,201.041794 268.000000,101.020897 268.000000,1.000000 
	C579.333313,1.000000 890.666687,1.000000 1202.000000,1.000000 
	C1202.000000,29.765268 1202.000000,58.419994 1201.670166,87.462845 
	C1194.274658,80.781876 1187.297363,73.620491 1180.070679,66.720245 
	C1178.594360,65.310661 1176.192749,64.145210 1174.199951,64.117111 
	C1159.037109,63.903286 1143.869019,63.919506 1128.705322,64.103134 
	C1126.834839,64.125778 1124.553223,65.109009 1123.191895,66.410477 
	C1116.089111,73.200966 1109.134521,80.154419 1102.350342,87.263123 
	C1101.055542,88.619911 1100.107910,90.924690 1100.097778,92.798065 
	C1099.953979,119.295868 1099.953003,145.794968 1100.100342,172.292725 
	C1100.110718,174.158646 1101.107178,176.445206 1102.408569,177.806366 
	C1109.198853,184.909286 1116.152466,191.863846 1123.261108,198.648056 
	C1124.617920,199.942993 1126.917969,200.876083 1128.796021,200.899384 
	C1143.459717,201.081284 1158.128296,201.109940 1172.790527,200.879166 
	C1174.941040,200.845306 1177.529419,199.689041 1179.124146,198.203079 
	C1186.896973,190.960327 1194.400879,183.429092 1202.000000,175.999985 
M363.473022,122.020065 
	C362.870819,123.575287 362.268616,125.130508 361.703308,126.590408 
	C358.419830,119.072304 355.228394,111.704132 351.987457,104.357796 
	C346.468903,91.848831 340.968719,79.331062 335.304382,66.888206 
	C334.750580,65.671661 333.118591,64.144638 331.964783,64.125793 
	C319.706818,63.925598 307.444366,64.001587 296.239899,64.001587 
	C297.186737,73.585800 298.758972,82.754517 298.875122,91.941650 
	C299.222534,119.423096 299.119934,146.912689 298.907837,174.396881 
	C298.860291,180.554108 297.773285,186.719635 296.916656,192.846634 
	C296.550476,195.465576 295.548401,197.995605 294.765930,200.816132 
	C306.478149,200.816132 317.593475,200.816132 329.155884,200.816132 
	C328.885986,199.335098 328.717834,198.093307 328.428375,196.880478 
	C327.307129,192.182846 325.227478,187.508118 325.157440,182.800278 
	C324.814087,159.722366 325.001709,136.636536 325.001709,112.571503 
	C336.731171,139.412506 348.057129,165.330154 359.383057,191.247803 
	C359.929779,191.285614 360.476471,191.323425 361.023163,191.361237 
	C372.096771,166.035583 383.170349,140.709930 394.243927,115.384270 
	C395.000000,132.328201 394.924652,149.073349 395.025696,165.817413 
	C395.096771,177.598434 395.544037,189.392532 390.685303,200.831329 
	C403.408142,200.831329 415.528687,200.831329 428.106018,200.831329 
	C427.871582,199.378464 427.800476,198.118607 427.456604,196.938217 
	C425.023560,188.586578 423.809326,180.160995 423.895172,171.374100 
	C424.175018,142.724915 423.980316,114.071259 424.040833,85.419472 
	C424.045197,83.343773 424.544983,81.251312 424.966492,79.197861 
	C425.982910,74.246292 427.089417,69.313232 428.240387,64.000000 
	C416.152283,64.000000 404.838684,64.110954 393.529968,63.925468 
	C390.535461,63.876350 388.968445,64.591797 387.702728,67.524330 
	C379.925293,85.543510 371.898926,103.455254 363.473022,122.020065 
M982.514160,64.000000 
	C978.391846,64.000000 974.269592,64.000000 969.246643,64.000000 
	C974.316467,75.959587 974.122498,87.902176 974.047119,99.889175 
	C973.890930,124.712334 974.130676,149.538345 973.907532,174.360489 
	C973.852173,180.519333 972.775574,186.685364 971.917847,192.813019 
	C971.550171,195.440079 970.542297,197.977539 969.804260,200.631256 
	C982.857056,200.631256 995.377991,200.631256 1008.669861,200.631256 
	C1002.773987,187.325790 1004.102295,173.763824 1003.991333,160.335724 
	C1003.875977,146.371414 1003.219421,148.066910 1016.774048,148.009552 
	C1021.117371,147.991165 1023.707764,149.980515 1025.059937,154.331360 
	C1029.545532,168.763977 1034.293213,183.115952 1039.057251,197.460007 
	C1039.494995,198.778076 1040.748291,200.820267 1041.654541,200.837326 
	C1053.707031,201.063995 1065.765137,200.988708 1079.058472,200.988708 
	C1065.855347,182.708801 1060.703369,162.143753 1052.947510,142.311584 
	C1058.214722,137.122223 1063.337402,131.630035 1068.950928,126.696358 
	C1072.905029,123.221130 1074.366089,119.440292 1074.115234,114.204193 
	C1073.677246,105.062004 1076.490234,94.821060 1073.219482,87.020172 
	C1069.881348,79.058784 1060.987671,73.345680 1054.237183,66.953331 
	C1052.559448,65.364487 1049.774780,64.148048 1047.485474,64.125320 
	C1026.162109,63.913597 1004.835815,64.000000 982.514160,64.000000 
M547.500000,188.999985 
	C551.029968,185.464249 554.471252,181.833160 558.126404,178.431900 
	C560.034363,176.656509 560.665527,175.185196 560.190735,172.301987 
	C559.234558,166.495483 559.076416,160.516266 559.046082,154.605957 
	C558.931458,132.288528 558.876160,109.968971 559.090332,87.653008 
	C559.141418,82.326721 560.298706,77.008430 560.990662,71.692116 
	C561.310974,69.230957 561.735718,66.783394 562.124878,64.253342 
	C549.316833,64.253342 537.217407,64.253342 524.709473,64.253342 
	C525.080750,66.152229 525.399963,67.729660 525.696350,69.311371 
	C526.469543,73.437531 527.865234,77.560699 527.897034,81.693626 
	C528.099304,108.007347 528.008179,134.323395 527.993408,160.638672 
	C527.990295,166.251266 526.014282,170.972916 520.387634,172.759949 
	C516.291809,174.060791 511.866760,174.807724 507.570038,174.895065 
	C497.954071,175.090530 491.069641,168.046783 491.032532,158.588089 
	C490.935822,133.938690 490.981140,109.288651 491.040192,84.639038 
	C491.044342,82.896553 491.579468,81.146454 491.941772,79.415390 
	C492.987488,74.418556 494.071167,69.429649 495.196869,64.171661 
	C481.911407,64.171661 469.161896,64.171661 457.804688,64.171661 
	C458.538696,74.938202 459.742493,85.648247 459.901276,96.373756 
	C460.229156,118.520363 460.022308,140.675293 459.960571,162.826584 
	C459.955231,164.742416 458.862640,166.760208 459.210846,168.548431 
	C459.792053,171.533173 456.757812,174.533127 459.952850,177.555695 
	C467.327789,184.532654 474.305054,191.928848 481.631500,198.959198 
	C482.863922,200.141800 485.027893,200.883621 486.776306,200.911926 
	C497.599365,201.087082 508.503479,200.193954 519.231934,201.216522 
	C531.019836,202.340057 540.223267,199.298843 547.500000,188.999985 
M950.179260,124.264954 
	C950.786133,122.841896 951.897034,121.426567 951.919006,119.994545 
	C952.072205,110.000786 952.092041,100.001854 951.904358,90.009270 
	C951.875000,88.444855 950.922058,86.569603 949.803894,85.408394 
	C943.682861,79.051796 937.494995,72.747017 931.050720,66.723267 
	C929.466431,65.242348 926.845459,64.135139 924.689514,64.115242 
	C903.866089,63.923107 883.040100,64.000000 862.214905,64.000000 
	C857.579163,64.000000 852.943359,64.000000 847.845215,64.000000 
	C848.126404,66.004089 848.354797,67.566010 848.563538,69.130562 
	C849.379089,75.243217 850.844543,81.351837 850.889954,87.470703 
	C851.126160,119.289886 851.016235,151.111786 850.959900,182.932617 
	C850.956482,184.842316 850.400635,186.755859 850.055115,188.659134 
	C849.326660,192.671295 848.567139,196.677811 847.818176,200.698624 
	C861.079224,200.698624 873.493652,200.698624 886.171875,200.698624 
	C885.929932,198.913895 885.830444,197.438568 885.518188,196.009750 
	C884.384033,190.819290 882.497925,185.689117 882.153809,180.453506 
	C881.586853,171.827484 882.140808,163.133636 881.932373,154.475372 
	C881.846252,150.898514 883.162354,149.888641 886.589294,149.938217 
	C897.915833,150.102127 909.250305,150.158691 920.571716,149.867630 
	C922.865967,149.808640 925.614197,148.578812 927.301758,146.986557 
	C934.930786,139.788391 942.254211,132.266388 950.179260,124.264954 
M696.000000,156.500000 
	C696.472595,171.535172 696.805115,186.552399 689.157104,200.625671 
	C704.176392,200.625671 718.015442,200.625671 732.493835,200.625671 
	C726.627014,189.019516 725.132263,177.181046 725.969604,164.929657 
	C726.173584,161.945389 726.000000,158.935287 726.000000,155.937073 
	C726.000000,135.615799 725.939819,115.294022 726.112061,94.974213 
	C726.126099,93.314056 727.750671,90.227028 728.584412,90.241539 
	C735.440491,90.360931 742.380798,90.532532 749.106506,91.741013 
	C754.775818,92.759674 760.192078,95.186134 766.279846,97.171936 
	C762.764526,86.796524 759.299561,77.288017 756.403442,67.609261 
	C755.463806,64.469070 754.039978,63.929638 751.206482,63.949837 
	C736.216187,64.056717 721.224609,64.000008 706.233521,64.000000 
	C692.925476,63.999996 679.617493,64.000000 666.460693,64.000000 
	C662.806396,75.072235 659.259583,85.818680 655.436279,97.403008 
	C667.391907,93.466461 677.949524,88.659943 689.937805,89.853928 
	C694.335999,90.291969 696.098145,91.508347 696.064148,96.035774 
	C695.915100,115.856224 696.000000,135.678436 696.000000,156.500000 
M595.000000,94.507050 
	C595.000000,122.663910 595.018311,150.820816 594.959473,178.977539 
	C594.955505,180.887085 594.433533,182.807999 594.046387,184.701935 
	C592.964661,189.994492 591.827148,195.275635 590.657471,200.818115 
	C616.919495,200.818115 642.365479,200.818115 667.614929,200.818115 
	C671.216370,189.862854 674.745789,179.126740 678.431885,167.913986 
	C676.775635,168.064301 676.060364,167.954651 675.508179,168.204971 
	C662.573975,174.068573 649.026001,176.207947 634.910889,175.009109 
	C634.083801,174.938858 633.245605,175.003052 632.412537,174.999512 
	C626.809387,174.975677 625.010803,173.234375 625.004333,167.741638 
	C624.990356,155.912430 624.650208,144.070618 625.074768,132.256653 
	C625.891907,109.520386 621.733704,86.452454 629.823792,64.289925 
	C616.613892,64.289925 603.858643,64.289925 591.880066,64.289925 
	C592.935730,74.177116 593.967896,83.844116 595.000000,94.507050 
M783.000000,81.718521 
	C783.000000,93.547295 783.361145,105.389328 782.927734,117.202202 
	C781.904175,145.101089 785.997375,173.193817 779.849548,200.796112 
	C792.130127,200.796112 804.423157,200.796112 817.146179,200.796112 
	C816.877258,198.974289 816.627136,197.411133 816.418457,195.842438 
	C815.605164,189.728195 814.159546,183.617477 814.109436,177.495956 
	C813.866699,147.842743 813.886230,118.185661 814.091003,88.531868 
	C814.134705,82.206520 815.292542,75.884018 816.033508,69.571518 
	C816.234558,67.859314 816.788086,66.188492 817.249023,64.199875 
	C804.311951,64.199875 791.852051,64.199875 779.560181,64.199875 
	C780.701843,69.701347 781.850891,75.238495 783.000000,81.718521 
M299.000000,259.400421 
	C299.000000,262.456207 299.000000,265.512024 299.000000,268.710449 
	C301.779633,268.710449 305.346130,268.710449 308.489777,268.710449 
	C308.489777,261.145050 308.489777,253.872086 308.489777,246.189163 
	C311.600647,253.072189 314.574921,259.652985 318.123016,267.503448 
	C321.678558,259.605988 324.644714,253.017624 327.538940,246.589035 
	C327.538940,253.898148 327.538940,261.249512 327.538940,268.691162 
	C331.120880,268.691162 335.002838,268.691162 338.454651,268.691162 
	C338.454651,255.071167 338.454651,241.759598 338.454651,228.223877 
	C334.745087,228.223877 330.623383,228.223877 326.349884,228.223877 
	C323.829376,233.653290 321.269257,239.167984 318.490234,245.154266 
	C315.711151,239.072556 313.235107,233.653976 310.815186,228.358185 
	C306.501648,228.358185 302.302155,228.358185 299.000000,228.358185 
	C299.000000,238.601364 299.000000,248.512344 299.000000,259.400421 
M676.955383,250.615082 
	C678.887207,254.525452 680.809265,258.440643 682.752930,262.345123 
	C686.287476,269.445526 686.292786,269.442902 695.223877,268.613556 
	C695.223877,255.219421 695.223877,241.754105 695.223877,228.431763 
	C692.036438,228.431763 688.539673,228.431763 685.510132,228.431763 
	C685.510132,234.720184 685.510132,240.576889 685.510132,246.949707 
	C682.632568,241.258621 680.110352,236.033691 677.332458,230.948456 
	C676.665833,229.728149 675.232727,228.283691 674.007874,228.135605 
	C670.759033,227.742844 667.431274,228.002335 664.507324,228.002335 
	C664.507324,241.792282 664.507324,255.108246 664.507324,268.711792 
	C667.659180,268.711792 671.230713,268.711792 674.462891,268.711792 
	C674.462891,261.248993 674.462891,253.921036 674.462891,246.252579 
	C675.204041,247.617462 675.849548,248.806274 676.955383,250.615082 
M438.603027,269.000000 
	C440.374176,269.000000 442.145294,269.000000 443.496674,269.000000 
	C443.496674,260.797791 443.496674,253.190872 443.496674,245.050018 
	C447.626801,253.280899 451.557648,261.114594 455.340820,268.653992 
	C458.405884,268.653992 461.136017,268.653992 464.419006,268.653992 
	C464.419006,254.991592 464.419006,241.675018 464.419006,228.176620 
	C461.190430,228.176620 457.780365,228.176620 455.062714,228.176620 
	C455.468201,234.327057 455.865540,240.353897 456.262909,246.380737 
	C452.627625,241.226974 450.026154,235.914612 447.218994,230.713272 
	C446.620392,229.604080 445.332581,228.222107 444.261658,228.129532 
	C440.571899,227.810532 436.837585,228.006821 433.476074,228.006821 
	C435.949982,242.041412 435.543854,255.437347 433.710663,269.000000 
	C435.056793,269.000000 436.381470,269.000000 438.603027,269.000000 
M1106.000000,241.685120 
	C1106.679321,237.431686 1104.958984,234.458862 1102.049194,231.234100 
	C1098.493774,227.293762 1094.433228,227.976501 1090.281982,228.046310 
	C1086.009277,228.118149 1081.691650,226.993439 1077.998535,231.195541 
	C1075.161499,234.423615 1073.643921,237.325455 1073.913452,241.626785 
	C1074.266235,247.256485 1073.865479,252.930252 1074.085693,258.573456 
	C1074.148315,260.175476 1074.988159,261.909424 1075.913208,263.286163 
	C1079.149292,268.102570 1083.708374,269.481659 1089.498657,269.154388 
	C1094.840454,268.852509 1100.197632,269.470886 1103.397705,264.040558 
	C1104.559937,262.068146 1105.719482,259.800568 1105.884033,257.593445 
	C1106.253784,252.634109 1106.000000,247.628311 1106.000000,241.685120 
M568.058716,265.671356 
	C567.808472,267.652740 567.785034,269.287354 570.661743,269.046387 
	C573.296692,268.825623 575.964661,268.999512 577.808228,268.999512 
	C577.808228,261.031036 577.808228,253.313980 577.808228,245.675537 
	C581.631714,253.289047 585.568542,261.128204 589.435059,268.827454 
	C592.320068,268.827454 594.937988,268.827454 598.599670,268.827454 
	C598.599670,255.191406 598.599670,241.719559 598.599670,228.208771 
	C596.195068,228.208771 592.747314,228.208771 589.503052,228.208771 
	C589.503052,234.424240 589.503052,240.430954 589.503052,246.808395 
	C587.884705,243.745956 585.884766,241.204620 585.148499,238.338669 
	C582.784668,229.137100 576.943481,226.272720 568.128662,228.046799 
	C567.877380,228.097366 567.653809,228.285858 568.594421,227.791946 
	C568.594421,240.586090 568.594421,252.753464 568.058716,265.671356 
M1150.498169,228.000000 
	C1148.508179,228.000000 1146.518188,228.000000 1145.085449,228.000000 
	C1145.470459,234.578659 1145.845703,240.987411 1146.220825,247.396179 
	C1145.889038,247.405746 1145.557129,247.415314 1145.225342,247.424881 
	C1141.986450,240.963211 1138.747437,234.501541 1135.650879,228.323929 
	C1131.255859,228.323929 1127.198608,228.323929 1123.536011,228.323929 
	C1125.954590,242.012894 1125.536133,255.424896 1123.745850,268.814087 
	C1127.047119,268.814087 1130.340820,268.814087 1133.496826,268.814087 
	C1133.496826,260.940887 1133.496826,253.253738 1133.496826,245.018982 
	C1137.623535,253.262680 1141.506714,261.019562 1145.380981,268.759033 
	C1148.155273,268.759033 1150.917603,268.759033 1154.000000,268.759033 
	C1154.000000,263.726746 1153.884033,258.924469 1154.026367,254.129852 
	C1154.261108,246.216339 1154.766479,238.308655 1154.833252,230.395737 
	C1154.839844,229.606827 1152.604492,228.799026 1150.498169,228.000000 
M877.022522,269.000000 
	C880.522278,269.000000 884.022034,269.006409 887.521790,268.998535 
	C893.328369,268.985474 897.988281,264.360535 897.997620,258.589661 
	C898.007935,252.256790 898.000488,245.923904 897.999878,239.591019 
	C897.999084,232.076706 893.850037,228.000626 886.202637,228.000031 
	C884.036133,227.999863 881.869629,228.000000 879.703125,228.000000 
	C870.609253,228.000046 867.000000,231.604141 867.000000,240.685120 
	C867.000000,246.018082 866.999207,251.351028 867.000183,256.683990 
	C867.001221,262.116333 870.585388,266.939484 877.022522,269.000000 
M976.855713,268.999359 
	C979.859558,266.225677 985.149475,263.680634 985.453857,260.636993 
	C986.519897,249.977249 985.867126,239.145630 985.867126,228.342896 
	C981.827209,228.342896 977.968018,228.342896 974.278259,228.342896 
	C974.550537,230.259888 974.954224,231.840240 974.969238,233.424271 
	C975.038574,240.746460 974.806885,248.076828 975.077332,255.389664 
	C975.223572,259.345215 973.228394,260.892181 969.905151,260.912750 
	C966.659546,260.932861 965.016235,258.794739 965.008484,255.556610 
	C964.986877,246.512283 965.000977,237.467896 965.000977,228.302582 
	C961.877319,228.302582 957.983154,228.302582 954.999695,228.302582 
	C954.999695,238.176926 955.483887,247.780594 954.761353,257.292572 
	C954.472534,261.095154 955.604919,263.058990 957.854431,265.522064 
	C960.303894,268.203979 962.866455,269.417511 966.496216,269.063416 
	C969.628540,268.757874 972.814331,269.000000 976.855713,268.999359 
M639.856262,268.999847 
	C643.211243,268.999847 646.566284,268.999847 649.431091,268.999847 
	C645.737671,255.028290 642.219360,241.719147 638.619812,228.102692 
	C634.174561,228.102692 628.868408,228.102692 624.899414,228.102692 
	C621.194214,242.004654 617.594238,255.511917 614.064758,268.754669 
	C617.312927,268.754669 621.084106,268.754669 624.174072,268.754669 
	C624.869507,265.383087 624.537659,260.956665 626.342407,259.764526 
	C628.615662,258.262848 632.908081,258.666290 635.777832,259.732452 
	C637.100281,260.223755 637.061218,264.257050 637.746521,266.653687 
	C637.983643,267.482635 638.544250,268.219055 639.856262,268.999847 
M360.000092,244.499115 
	C357.635101,252.651962 355.270111,260.804840 352.970367,268.732849 
	C356.270264,268.732849 360.024017,268.732849 363.743561,268.732849 
	C364.533539,257.843140 362.703522,258.620026 375.924622,259.318146 
	C376.426910,262.383759 376.941681,265.525543 377.475037,268.780670 
	C381.467926,268.780670 385.484100,268.780670 388.850250,268.780670 
	C385.178986,255.304337 381.518616,241.867920 377.813141,228.265900 
	C373.364105,228.265900 368.281891,228.265900 363.937836,228.265900 
	C362.569977,233.682846 361.310852,238.669144 360.000092,244.499115 
M783.954895,261.280273 
	C783.366028,255.567719 779.689026,260.021179 778.651611,260.307770 
	C768.607239,263.082703 766.479187,261.692657 767.087036,251.821457 
	C767.103088,251.560944 767.485657,251.322998 767.941589,250.787674 
	C770.645081,251.114548 773.550659,251.465866 776.720459,251.849121 
	C776.720459,248.344513 776.720459,244.777084 776.720459,241.254990 
	C773.567444,241.942566 770.518188,242.607513 767.236450,243.323166 
	C767.236450,240.481277 767.236450,238.404175 767.236450,236.488892 
	C772.620117,236.488892 777.765076,236.488892 783.234314,236.488892 
	C782.326172,233.637787 781.460022,230.918610 780.603638,228.230026 
	C772.364197,228.230026 764.249207,228.230026 756.548096,228.230026 
	C756.548096,241.876602 756.548096,255.300720 756.548096,269.000000 
	C762.293274,269.000000 768.168945,268.478546 773.906921,269.143921 
	C779.866516,269.835052 782.711548,267.595612 783.954895,261.280273 
M537.006409,259.313843 
	C537.006409,256.564911 537.006409,253.815994 537.006409,250.654495 
	C540.314636,251.142014 542.880127,251.520081 545.719849,251.938553 
	C545.719849,248.476074 545.719849,245.043320 545.719849,241.674179 
	C543.015442,242.164078 540.177124,242.678238 537.313721,243.196945 
	C537.313721,240.324585 537.313721,238.258820 537.313721,235.788147 
	C542.733032,236.092484 547.818665,236.378067 553.137451,236.676758 
	C552.320129,234.406281 551.896423,232.458755 550.937378,230.825607 
	C550.255615,229.664703 548.878296,228.163406 547.766724,228.125458 
	C540.637634,227.882111 533.496155,228.001266 526.503052,228.001266 
	C526.503052,241.776764 526.503052,255.186264 526.503052,269.000000 
	C531.263550,269.000000 536.232056,269.000000 541.200623,269.000000 
	C550.632629,269.000000 550.636536,269.001465 553.912903,260.169525 
	C553.995178,259.947632 553.746826,259.603027 553.961243,260.257660 
	C548.096191,260.257660 542.584167,260.257660 537.006409,259.313843 
M848.220947,236.949860 
	C847.813843,233.986786 847.406738,231.023712 846.991333,228.000000 
	C841.873840,228.000000 837.387939,227.965012 832.903259,228.022156 
	C831.624146,228.038452 830.130920,227.947571 829.105835,228.542877 
	C821.431580,232.999741 820.172302,245.036026 827.278625,249.674271 
	C829.198608,250.927444 831.697266,251.619370 834.006409,251.871185 
	C837.108093,252.209427 839.346436,253.159180 838.920532,256.594238 
	C838.522217,259.806244 836.217529,261.324707 833.055359,260.958954 
	C829.107910,260.502380 825.195190,259.745941 821.255371,259.117035 
	C822.367432,262.533569 823.401062,265.709290 824.472168,268.999969 
	C829.610840,268.999969 834.596191,269.027832 839.580811,268.978485 
	C840.694580,268.967468 841.963440,268.979828 842.893372,268.481812 
	C851.026917,264.125885 851.659790,249.014862 844.349854,245.035995 
	C842.052612,243.785599 839.036377,243.919159 836.574951,242.883072 
	C835.153992,242.284943 834.183777,240.615738 833.010742,239.428589 
	C834.226624,238.288330 835.398865,236.241882 836.666687,236.180862 
	C840.208191,236.010391 843.789307,236.661804 848.220947,236.949860 
M1197.992676,235.505951 
	C1196.364502,228.000046 1196.364502,228.000031 1189.124390,227.999985 
	C1187.129028,227.999985 1185.085205,228.281143 1183.147461,227.947174 
	C1177.378906,226.953003 1174.560181,231.140793 1172.258301,234.834549 
	C1169.924561,238.579254 1172.325806,246.860107 1175.759521,249.105911 
	C1177.846680,250.471054 1180.397461,251.548172 1182.847778,251.834900 
	C1186.206909,252.228027 1188.301758,253.287781 1187.968628,256.927277 
	C1187.626099,260.667236 1184.745850,261.200714 1181.864502,260.935486 
	C1178.282593,260.605743 1174.744263,259.803131 1171.070068,259.185028 
	C1172.847656,269.000000 1172.847656,269.000031 1181.955078,269.000000 
	C1184.282959,269.000000 1186.614380,269.074463 1188.937378,268.967041 
	C1190.020630,268.916962 1191.261719,268.786011 1192.133057,268.226776 
	C1197.185303,264.983643 1200.096313,256.968964 1197.849976,250.273087 
	C1196.219238,245.412354 1191.669922,243.748184 1186.743774,242.845215 
	C1185.002930,242.526123 1183.590210,240.416626 1182.027832,239.124542 
	C1183.669922,238.083084 1185.238525,236.326736 1186.969360,236.148880 
	C1190.576050,235.778259 1194.268433,236.242538 1197.992676,235.505951 
M737.202148,237.038086 
	C738.336304,237.406723 739.470398,237.775360 741.096008,238.303741 
	C740.235596,235.255356 739.697632,232.934662 738.898254,230.707825 
	C738.545715,229.725632 737.851685,228.526733 736.987793,228.125351 
	C732.966858,226.257080 720.939880,228.953995 717.574402,231.793976 
	C714.605530,234.299225 713.760620,237.144669 713.928162,240.876953 
	C714.196411,246.851425 713.958496,252.847168 714.015259,258.833130 
	C714.050781,262.585449 720.095703,268.905945 723.768372,268.976135 
	C728.738647,269.071167 733.712036,268.999786 738.605530,268.999786 
	C739.135803,267.162872 739.547241,265.618652 740.030090,264.097046 
	C740.540771,262.487427 741.119324,260.899323 741.947998,258.487915 
	C739.211670,259.293549 737.098816,259.898499 734.996277,260.537811 
	C728.155823,262.617828 724.034851,259.693756 724.001892,252.716080 
	C723.990112,250.221756 724.283691,247.688309 723.946960,245.240234 
	C722.923218,237.796860 727.846252,233.906143 737.202148,237.038086 
M1020.000000,251.491348 
	C1020.000000,246.383133 1020.000000,241.274902 1020.000000,235.485336 
	C1024.317993,236.387680 1028.007935,237.158783 1032.214233,238.037781 
	C1031.451538,235.911911 1030.555298,234.333344 1030.354980,232.670868 
	C1029.884644,228.769272 1027.863403,227.635681 1024.100342,227.923889 
	C1019.805847,228.252777 1015.466736,228.000000 1011.147034,228.000000 
	C1001.392761,228.000000 1001.391663,227.999649 998.527344,237.077606 
	C998.460632,237.289078 998.498230,237.533463 998.482300,237.862717 
	C1002.207764,237.125336 1005.870483,236.400360 1009.998596,235.583282 
	C1009.998596,245.235931 1010.091858,254.018158 1009.928101,262.795593 
	C1009.890625,264.804626 1008.967407,266.797150 1008.425171,268.900391 
	C1012.771606,268.900391 1017.078369,268.900391 1020.738892,268.900391 
	C1020.491211,263.397736 1020.245605,257.940735 1020.000000,251.491348 
M488.651367,228.000000 
	C480.741364,228.000488 479.939575,228.835251 479.332123,238.293869 
	C481.599548,237.513474 483.612762,236.519318 485.732025,236.171494 
	C488.094116,235.783844 491.069061,235.177277 490.991394,239.238174 
	C490.803741,249.048950 490.579346,258.859009 490.369141,268.698303 
	C493.438049,268.698303 497.658173,268.698303 500.781342,268.698303 
	C500.515656,259.104340 500.188995,249.796799 500.030029,240.486389 
	C499.954224,236.047989 501.487854,235.095444 505.948730,236.431824 
	C507.844299,236.999710 509.734467,237.585800 512.520752,238.436447 
	C511.787598,236.184479 511.171753,235.024658 511.058624,233.817719 
	C510.588531,228.803192 507.807281,227.471695 503.089600,227.910919 
	C498.634705,228.325699 494.110870,228.000000 488.651367,228.000000 
M927.506836,269.000000 
	C930.668823,268.999939 933.843811,269.164154 936.985962,268.914612 
	C938.153137,268.821899 939.799377,268.031036 940.260315,267.086609 
	C941.455566,264.638092 942.113525,261.927368 942.967224,259.377228 
	C937.432739,260.099396 932.404419,260.755554 927.486938,261.397247 
	C927.486938,249.749786 927.486938,239.075455 927.486938,228.315430 
	C923.849060,228.315430 919.967041,228.315430 916.507690,228.315430 
	C916.507690,241.932678 916.507690,255.234940 916.507690,269.000000 
	C919.589417,269.000000 923.054932,269.000000 927.506836,269.000000 
M1056.000000,249.498810 
	C1056.000000,242.466736 1056.000000,235.434662 1056.000000,228.292511 
	C1052.877930,228.292511 1048.984375,228.292511 1045.503418,228.292511 
	C1045.503418,241.956436 1045.503418,255.328796 1045.503418,268.800598 
	C1049.240356,268.800598 1053.004272,268.800598 1056.000000,268.800598 
	C1056.000000,262.568359 1056.000000,256.532867 1056.000000,249.498810 
M414.382507,231.100403 
	C415.435638,229.277786 415.514954,227.971512 412.825684,227.995712 
	C409.584900,228.024887 406.343597,228.002609 403.545197,228.002609 
	C403.545197,241.991028 403.545197,255.366089 403.545197,268.761902 
	C407.280243,268.761902 411.041870,268.761902 414.033997,268.761902 
	C414.033997,256.332458 414.033997,244.145065 414.382507,231.100403 
z"/>
<path fill="#FFFFFF" opacity="1.000000" stroke="none" 
	d="
M262.000000,302.000000 
	C254.979050,302.000000 247.958099,302.000000 240.467453,301.535156 
	C239.932755,297.002625 239.867752,292.934906 239.866867,288.411011 
	C239.870850,274.691467 239.810730,261.428101 239.846725,247.696426 
	C239.908768,242.448044 239.874710,237.668015 239.895874,232.429428 
	C239.925461,219.011017 239.899811,206.051163 239.943024,192.623856 
	C239.924515,187.717163 239.837143,183.277908 239.827576,178.386139 
	C239.871353,164.667343 239.837341,151.401077 239.879028,137.665039 
	C239.916718,132.426163 239.878693,127.657043 239.895874,122.429382 
	C239.925430,109.010956 239.899780,96.051056 239.943008,82.621246 
	C239.938446,63.386421 239.865005,44.621506 239.853088,25.404446 
	C239.914627,20.697264 239.914627,16.442232 239.914627,11.946016 
	C238.061172,12.486149 236.640579,12.767081 235.323990,13.303338 
	C204.808960,25.732353 174.304138,38.186375 143.800095,50.642365 
	C134.994568,54.238014 134.998398,54.247402 134.998398,63.521114 
	C134.998398,73.946373 134.998398,84.371628 134.998398,95.000000 
	C89.925316,95.000000 45.462658,95.000000 1.000000,95.000000 
	C1.000000,63.704781 1.000000,32.409557 1.000000,1.000000 
	C89.354195,1.000000 177.708435,1.000000 266.397949,1.373642 
	C262.792328,1.959783 261.911560,4.091514 261.915649,7.867663 
	C262.022278,105.911690 262.000000,203.955856 262.000000,302.000000 
z"/>
<path fill="#8B222A" opacity="1.000000" stroke="none" 
	d="
M158.000000,302.000000 
	C109.979103,302.000000 61.958210,302.000000 13.425601,301.532867 
	C12.913887,236.229843 12.913887,171.393936 12.913887,106.126328 
	C62.093147,106.126328 110.491928,106.126328 158.925140,106.582428 
	C158.973465,170.259293 158.995514,233.480057 158.959274,296.700806 
	C158.958267,298.467377 158.333771,300.233612 158.000000,302.000000 
M134.897858,153.507355 
	C134.897858,150.676895 134.899734,147.846451 134.897522,145.015991 
	C134.892044,138.050354 134.891281,138.046280 128.166168,138.042786 
	C119.841316,138.038452 111.516464,138.041748 103.191612,138.041748 
	C100.272423,138.041748 97.353226,138.041733 94.063400,138.041733 
	C94.063400,151.176239 93.962814,163.474945 94.239777,175.765121 
	C94.263931,176.836792 96.751534,178.724228 98.128960,178.755997 
	C108.945511,179.005692 119.771179,178.821716 130.592194,178.940079 
	C133.867706,178.975906 135.005920,177.666504 134.938797,174.483902 
	C134.798416,167.826996 134.897156,161.165039 134.897858,153.507355 
M101.584900,288.958221 
	C111.076797,288.958069 120.571419,288.826477 130.059235,289.023254 
	C133.797012,289.100708 135.017029,287.742004 134.956818,284.083160 
	C134.786972,273.761444 134.795609,263.433533 134.953751,253.111435 
	C135.007904,249.576538 134.047440,247.966187 130.186508,248.036789 
	C119.698982,248.228577 109.203369,248.228073 98.715782,248.037949 
	C94.830093,247.967484 93.913452,249.627899 93.985550,253.141846 
	C94.159721,261.631012 94.041855,270.126190 94.041756,278.618927 
	C94.041710,281.891785 94.041740,285.164673 94.041740,288.958130 
	C96.701088,288.958130 98.656960,288.958130 101.584900,288.958221 
M99.645073,233.005661 
	C111.216965,233.005661 122.788864,233.005661 134.859573,233.005661 
	C134.859573,220.018906 134.949219,207.752487 134.671921,195.494370 
	C134.651947,194.611526 131.968552,193.080414 130.500259,193.051987 
	C119.696121,192.842758 108.886009,192.922699 98.077957,192.962402 
	C96.828796,192.966980 95.580788,193.283234 94.426468,193.442032 
	C94.426468,206.768265 94.426468,219.650024 94.426468,232.723846 
	C96.087425,232.833664 97.387100,232.919601 99.645073,233.005661 
M58.499176,248.108734 
	C51.756847,248.108734 45.014515,248.108734 38.397583,248.108734 
	C38.397583,262.208801 38.397583,275.404724 38.397583,288.557495 
	C51.741447,288.557495 64.620003,288.557495 77.934288,288.557495 
	C77.934288,275.887909 78.035172,263.606567 77.761978,251.333588 
	C77.737465,250.232422 75.357231,248.372879 73.958763,248.260345 
	C69.165588,247.874557 64.322380,248.110260 58.499176,248.108734 
M37.936409,144.604477 
	C37.936409,155.850662 37.936409,167.096863 37.936409,178.862656 
	C50.774555,178.862656 62.881073,178.963623 74.978592,178.680298 
	C76.000114,178.656387 77.762993,176.088516 77.816673,174.651535 
	C78.102150,167.008377 77.952438,159.348969 77.953041,151.695175 
	C77.953384,147.280212 77.953102,142.865250 77.953102,138.409973 
	C64.233681,138.409973 51.349014,138.409973 37.936306,138.409973 
	C37.936306,140.393005 37.936306,142.016464 37.936409,144.604477 
M37.941792,209.501831 
	C37.941792,217.243881 37.941792,224.985916 37.941792,232.570099 
	C51.782059,232.570099 64.678017,232.570099 77.565460,232.570099 
	C77.565460,219.232147 77.565460,206.328857 77.565460,193.293335 
	C64.288193,193.293335 51.392738,193.293335 37.941662,193.293335 
	C37.941662,198.588593 37.941662,203.546005 37.941792,209.501831 
z"/>
<path fill="#908987" opacity="1.000000" stroke="none" 
	d="
M239.791550,25.856594 
	C239.865005,44.621506 239.938446,63.386421 239.487915,82.543854 
	C225.897995,82.936371 212.832077,82.936371 199.625946,82.936371 
	C199.625946,96.599884 199.625946,109.629951 199.625946,122.887924 
	C213.278152,122.887924 226.559402,122.887924 239.840652,122.887924 
	C239.878693,127.657043 239.916718,132.426163 239.423309,137.657043 
	C225.817841,138.118820 212.743805,138.118820 199.257751,138.118820 
	C199.257751,151.157349 199.271103,163.449036 199.249039,175.740646 
	C199.242981,179.111710 201.630112,178.746902 203.789978,178.753098 
	C215.776550,178.787506 227.763168,178.811249 239.749771,178.838654 
	C239.837143,183.277908 239.924515,187.717163 239.487915,192.546402 
	C225.898010,192.936386 212.832062,192.936386 199.625931,192.936386 
	C199.625931,206.599670 199.625931,219.629562 199.625931,232.887970 
	C213.278091,232.887970 226.559372,232.887970 239.840652,232.887970 
	C239.874710,237.668015 239.908768,242.448044 239.395691,247.736572 
	C227.526093,248.244385 216.199554,248.418976 204.883362,248.153015 
	C200.622513,248.052856 198.872757,249.088242 199.148193,253.670624 
	C199.527145,259.975098 199.243073,266.319397 199.243057,272.646637 
	C199.243057,277.918213 199.243057,283.189789 199.243057,288.867218 
	C213.232254,288.867218 226.517502,288.867218 239.802765,288.867218 
	C239.867752,292.934906 239.932755,297.002625 239.998871,301.535156 
	C216.979111,302.000000 193.958206,302.000000 170.458527,301.749115 
	C169.950287,301.333435 169.920837,301.168640 169.979492,300.541992 
	C170.067612,231.994949 170.067612,163.909760 170.067612,95.136513 
	C162.426529,95.136513 155.378799,95.136513 148.009689,95.136513 
	C148.009689,84.642044 147.912567,74.831467 148.137085,65.028259 
	C148.164032,63.851181 149.703659,62.141380 150.933304,61.642311 
	C180.520370,49.634018 210.160782,37.757202 239.791550,25.856594 
z"/>
<path fill="#231F20" opacity="1.000000" stroke="none" 
	d="
M1202.000000,175.531326 
	C1194.400879,183.429092 1186.896973,190.960327 1179.124146,198.203079 
	C1177.529419,199.689041 1174.941040,200.845306 1172.790527,200.879166 
	C1158.128296,201.109940 1143.459717,201.081284 1128.796021,200.899384 
	C1126.917969,200.876083 1124.617920,199.942993 1123.261108,198.648056 
	C1116.152466,191.863846 1109.198853,184.909286 1102.408569,177.806366 
	C1101.107178,176.445206 1100.110718,174.158646 1100.100342,172.292725 
	C1099.953003,145.794968 1099.953979,119.295868 1100.097778,92.798065 
	C1100.107910,90.924690 1101.055542,88.619911 1102.350342,87.263123 
	C1109.134521,80.154419 1116.089111,73.200966 1123.191895,66.410477 
	C1124.553223,65.109009 1126.834839,64.125778 1128.705322,64.103134 
	C1143.869019,63.919506 1159.037109,63.903286 1174.199951,64.117111 
	C1176.192749,64.145210 1178.594360,65.310661 1180.070679,66.720245 
	C1187.297363,73.620491 1194.274658,80.781876 1201.670166,87.925476 
	C1202.000000,117.020897 1202.000000,146.041794 1202.000000,175.531326 
M1160.843872,173.673431 
	C1166.815186,171.351013 1169.802368,166.529663 1169.889893,160.579742 
	C1170.180908,140.793823 1170.152954,120.998947 1169.888062,101.212303 
	C1169.824951,96.501396 1167.723267,92.420113 1162.999146,89.910744 
	C1156.682129,86.555313 1150.000732,87.694839 1143.649414,88.368240 
	C1137.413330,89.029434 1132.050293,96.250740 1132.027954,102.091766 
	C1131.954102,121.382751 1131.759644,140.679810 1132.210571,159.960556 
	C1132.296875,163.655853 1134.109375,168.576035 1136.852783,170.693741 
	C1143.616577,175.914963 1151.838135,176.340927 1160.843872,173.673431 
z"/>
<path fill="#241F20" opacity="1.000000" stroke="none" 
	d="
M239.853088,25.404446 
	C210.160782,37.757202 180.520370,49.634018 150.933304,61.642311 
	C149.703659,62.141380 148.164032,63.851181 148.137085,65.028259 
	C147.912567,74.831467 148.009689,84.642044 148.009689,95.136513 
	C155.378799,95.136513 162.426529,95.136513 170.067612,95.136513 
	C170.067612,163.909760 170.067612,231.994949 169.531555,300.534363 
	C166.093933,300.988586 163.192398,300.988586 159.996674,300.988586 
	C159.996674,298.039398 159.996658,296.052338 159.996658,294.065308 
	C159.996643,233.276917 160.006454,172.488510 159.950211,111.700180 
	C159.948502,109.841904 159.259354,107.984261 158.890717,106.126328 
	C110.491928,106.126328 62.093147,106.126328 12.913887,106.126328 
	C12.913887,171.393936 12.913887,236.229843 12.956944,301.532867 
	C9.008005,302.000000 5.016010,302.000000 1.000000,302.000000 
	C1.000000,233.312439 1.000000,164.624878 1.000000,95.468658 
	C45.462658,95.000000 89.925316,95.000000 134.998398,95.000000 
	C134.998398,84.371628 134.998398,73.946373 134.998398,63.521114 
	C134.998398,54.247402 134.994568,54.238014 143.800095,50.642365 
	C174.304138,38.186375 204.808960,25.732353 235.323990,13.303338 
	C236.640579,12.767081 238.061172,12.486149 239.914627,11.946016 
	C239.914627,16.442232 239.914627,20.697264 239.853088,25.404446 
z"/>
<path fill="#231F20" opacity="1.000000" stroke="none" 
	d="
M262.428467,302.000000 
	C262.000000,203.955856 262.022278,105.911690 261.915649,7.867663 
	C261.911560,4.091514 262.792328,1.959783 266.866638,1.373642 
	C267.000000,1.000000 267.500000,1.000000 267.750000,1.000000 
	C268.000000,101.020897 268.000000,201.041794 268.000000,301.531342 
	C266.285645,302.000000 264.571289,302.000000 262.428467,302.000000 
z"/>
<path fill="#572F32" opacity="1.000000" stroke="none" 
	d="
M158.925140,106.582428 
	C159.259354,107.984261 159.948502,109.841904 159.950211,111.700180 
	C160.006454,172.488510 159.996643,233.276917 159.996658,294.065308 
	C159.996658,296.052338 159.996674,298.039398 159.996674,300.988586 
	C163.192398,300.988586 166.093933,300.988586 169.443420,300.996216 
	C169.920837,301.168640 169.950287,301.333435 169.989868,301.749115 
	C166.307098,302.000000 162.614182,302.000000 158.460632,302.000000 
	C158.333771,300.233612 158.958267,298.467377 158.959274,296.700806 
	C158.995514,233.480057 158.973465,170.259293 158.925140,106.582428 
z"/>
<path fill="#231F20" opacity="1.000000" stroke="none" 
	d="
M363.714203,121.711411 
	C371.898926,103.455254 379.925293,85.543510 387.702728,67.524330 
	C388.968445,64.591797 390.535461,63.876350 393.529968,63.925468 
	C404.838684,64.110954 416.152283,64.000000 428.240387,64.000000 
	C427.089417,69.313232 425.982910,74.246292 424.966492,79.197861 
	C424.544983,81.251312 424.045197,83.343773 424.040833,85.419472 
	C423.980316,114.071259 424.175018,142.724915 423.895172,171.374100 
	C423.809326,180.160995 425.023560,188.586578 427.456604,196.938217 
	C427.800476,198.118607 427.871582,199.378464 428.106018,200.831329 
	C415.528687,200.831329 403.408142,200.831329 390.685303,200.831329 
	C395.544037,189.392532 395.096771,177.598434 395.025696,165.817413 
	C394.924652,149.073349 395.000000,132.328201 394.243927,115.384270 
	C383.170349,140.709930 372.096771,166.035583 361.023163,191.361237 
	C360.476471,191.323425 359.929779,191.285614 359.383057,191.247803 
	C348.057129,165.330154 336.731171,139.412506 325.001709,112.571503 
	C325.001709,136.636536 324.814087,159.722366 325.157440,182.800278 
	C325.227478,187.508118 327.307129,192.182846 328.428375,196.880478 
	C328.717834,198.093307 328.885986,199.335098 329.155884,200.816132 
	C317.593475,200.816132 306.478149,200.816132 294.765930,200.816132 
	C295.548401,197.995605 296.550476,195.465576 296.916656,192.846634 
	C297.773285,186.719635 298.860291,180.554108 298.907837,174.396881 
	C299.119934,146.912689 299.222534,119.423096 298.875122,91.941650 
	C298.758972,82.754517 297.186737,73.585800 296.239899,64.001587 
	C307.444366,64.001587 319.706818,63.925598 331.964783,64.125793 
	C333.118591,64.144638 334.750580,65.671661 335.304382,66.888206 
	C340.968719,79.331062 346.468903,91.848831 351.987457,104.357796 
	C355.228394,111.704132 358.419830,119.072304 361.703308,126.590408 
	C362.268616,125.130508 362.870819,123.575287 363.714203,121.711411 
z"/>
<path fill="#231F20" opacity="1.000000" stroke="none" 
	d="
M983.012268,64.000000 
	C1004.835815,64.000000 1026.162109,63.913597 1047.485474,64.125320 
	C1049.774780,64.148048 1052.559448,65.364487 1054.237183,66.953331 
	C1060.987671,73.345680 1069.881348,79.058784 1073.219482,87.020172 
	C1076.490234,94.821060 1073.677246,105.062004 1074.115234,114.204193 
	C1074.366089,119.440292 1072.905029,123.221130 1068.950928,126.696358 
	C1063.337402,131.630035 1058.214722,137.122223 1052.947510,142.311584 
	C1060.703369,162.143753 1065.855347,182.708801 1079.058472,200.988708 
	C1065.765137,200.988708 1053.707031,201.063995 1041.654541,200.837326 
	C1040.748291,200.820267 1039.494995,198.778076 1039.057251,197.460007 
	C1034.293213,183.115952 1029.545532,168.763977 1025.059937,154.331360 
	C1023.707764,149.980515 1021.117371,147.991165 1016.774048,148.009552 
	C1003.219421,148.066910 1003.875977,146.371414 1003.991333,160.335724 
	C1004.102295,173.763824 1002.773987,187.325790 1008.669861,200.631256 
	C995.377991,200.631256 982.857056,200.631256 969.804260,200.631256 
	C970.542297,197.977539 971.550171,195.440079 971.917847,192.813019 
	C972.775574,186.685364 973.852173,180.519333 973.907532,174.360489 
	C974.130676,149.538345 973.890930,124.712334 974.047119,99.889175 
	C974.122498,87.902176 974.316467,75.959587 969.246643,64.000000 
	C974.269592,64.000000 978.391846,64.000000 983.012268,64.000000 
M1012.655090,88.000000 
	C1004.000183,88.000648 1004.000122,88.000648 1004.000000,96.453644 
	C1003.999939,103.949020 1004.055359,111.444992 1003.976013,118.939529 
	C1003.938354,122.487617 1005.497742,124.088158 1009.053223,124.022186 
	C1013.881897,123.932610 1018.717529,124.125473 1023.542908,123.971756 
	C1031.571167,123.716011 1037.939941,120.743347 1041.089355,112.742790 
	C1043.499634,106.619904 1041.702393,94.053284 1033.407837,90.419556 
	C1026.690674,87.476822 1020.221741,88.540413 1012.655090,88.000000 
z"/>
<path fill="#231F20" opacity="1.000000" stroke="none" 
	d="
M547.250000,189.250000 
	C540.223267,199.298843 531.019836,202.340057 519.231934,201.216522 
	C508.503479,200.193954 497.599365,201.087082 486.776306,200.911926 
	C485.027893,200.883621 482.863922,200.141800 481.631500,198.959198 
	C474.305054,191.928848 467.327789,184.532654 459.952850,177.555695 
	C456.757812,174.533127 459.792053,171.533173 459.210846,168.548431 
	C458.862640,166.760208 459.955231,164.742416 459.960571,162.826584 
	C460.022308,140.675293 460.229156,118.520363 459.901276,96.373756 
	C459.742493,85.648247 458.538696,74.938202 457.804688,64.171661 
	C469.161896,64.171661 481.911407,64.171661 495.196869,64.171661 
	C494.071167,69.429649 492.987488,74.418556 491.941772,79.415390 
	C491.579468,81.146454 491.044342,82.896553 491.040192,84.639038 
	C490.981140,109.288651 490.935822,133.938690 491.032532,158.588089 
	C491.069641,168.046783 497.954071,175.090530 507.570038,174.895065 
	C511.866760,174.807724 516.291809,174.060791 520.387634,172.759949 
	C526.014282,170.972916 527.990295,166.251266 527.993408,160.638672 
	C528.008179,134.323395 528.099304,108.007347 527.897034,81.693626 
	C527.865234,77.560699 526.469543,73.437531 525.696350,69.311371 
	C525.399963,67.729660 525.080750,66.152229 524.709473,64.253342 
	C537.217407,64.253342 549.316833,64.253342 562.124878,64.253342 
	C561.735718,66.783394 561.310974,69.230957 560.990662,71.692116 
	C560.298706,77.008430 559.141418,82.326721 559.090332,87.653008 
	C558.876160,109.968971 558.931458,132.288528 559.046082,154.605957 
	C559.076416,160.516266 559.234558,166.495483 560.190735,172.301987 
	C560.665527,175.185196 560.034363,176.656509 558.126404,178.431900 
	C554.471252,181.833160 551.029968,185.464249 547.250000,189.250000 
z"/>
<path fill="#231F20" opacity="1.000000" stroke="none" 
	d="
M949.933472,124.562973 
	C942.254211,132.266388 934.930786,139.788391 927.301758,146.986557 
	C925.614197,148.578812 922.865967,149.808640 920.571716,149.867630 
	C909.250305,150.158691 897.915833,150.102127 886.589294,149.938217 
	C883.162354,149.888641 881.846252,150.898514 881.932373,154.475372 
	C882.140808,163.133636 881.586853,171.827484 882.153809,180.453506 
	C882.497925,185.689117 884.384033,190.819290 885.518188,196.009750 
	C885.830444,197.438568 885.929932,198.913895 886.171875,200.698624 
	C873.493652,200.698624 861.079224,200.698624 847.818176,200.698624 
	C848.567139,196.677811 849.326660,192.671295 850.055115,188.659134 
	C850.400635,186.755859 850.956482,184.842316 850.959900,182.932617 
	C851.016235,151.111786 851.126160,119.289886 850.889954,87.470703 
	C850.844543,81.351837 849.379089,75.243217 848.563538,69.130562 
	C848.354797,67.566010 848.126404,66.004089 847.845215,64.000000 
	C852.943359,64.000000 857.579163,64.000000 862.214905,64.000000 
	C883.040100,64.000000 903.866089,63.923107 924.689514,64.115242 
	C926.845459,64.135139 929.466431,65.242348 931.050720,66.723267 
	C937.494995,72.747017 943.682861,79.051796 949.803894,85.408394 
	C950.922058,86.569603 951.875000,88.444855 951.904358,90.009270 
	C952.092041,100.001854 952.072205,110.000786 951.919006,119.994545 
	C951.897034,121.426567 950.786133,122.841896 949.933472,124.562973 
M898.419495,124.000000 
	C906.987427,124.242081 914.864502,122.855774 918.017517,113.453079 
	C919.070251,110.313599 919.015381,106.694771 918.943176,103.306244 
	C918.728699,93.257912 912.749573,89.563644 903.973450,88.175339 
	C898.135071,87.251770 892.029419,88.107529 886.048828,87.955086 
	C883.044373,87.878510 881.908325,88.943344 881.951965,92.000259 
	C882.084900,101.307579 882.078003,110.619041 881.955139,119.926636 
	C881.915894,122.900429 882.887939,124.186447 885.976440,124.042320 
	C889.791504,123.864304 893.621277,123.999916 898.419495,124.000000 
z"/>
<path fill="#231F20" opacity="1.000000" stroke="none" 
	d="
M696.000000,156.000000 
	C696.000000,135.678436 695.915100,115.856224 696.064148,96.035774 
	C696.098145,91.508347 694.335999,90.291969 689.937805,89.853928 
	C677.949524,88.659943 667.391907,93.466461 655.436279,97.403008 
	C659.259583,85.818680 662.806396,75.072235 666.460693,64.000000 
	C679.617493,64.000000 692.925476,63.999996 706.233521,64.000000 
	C721.224609,64.000008 736.216187,64.056717 751.206482,63.949837 
	C754.039978,63.929638 755.463806,64.469070 756.403442,67.609261 
	C759.299561,77.288017 762.764526,86.796524 766.279846,97.171936 
	C760.192078,95.186134 754.775818,92.759674 749.106506,91.741013 
	C742.380798,90.532532 735.440491,90.360931 728.584412,90.241539 
	C727.750671,90.227028 726.126099,93.314056 726.112061,94.974213 
	C725.939819,115.294022 726.000000,135.615799 726.000000,155.937073 
	C726.000000,158.935287 726.173584,161.945389 725.969604,164.929657 
	C725.132263,177.181046 726.627014,189.019516 732.493835,200.625671 
	C718.015442,200.625671 704.176392,200.625671 689.157104,200.625671 
	C696.805115,186.552399 696.472595,171.535172 696.000000,156.000000 
z"/>
<path fill="#231F20" opacity="1.000000" stroke="none" 
	d="
M595.000000,94.009087 
	C593.967896,83.844116 592.935730,74.177116 591.880066,64.289925 
	C603.858643,64.289925 616.613892,64.289925 629.823792,64.289925 
	C621.733704,86.452454 625.891907,109.520386 625.074768,132.256653 
	C624.650208,144.070618 624.990356,155.912430 625.004333,167.741638 
	C625.010803,173.234375 626.809387,174.975677 632.412537,174.999512 
	C633.245605,175.003052 634.083801,174.938858 634.910889,175.009109 
	C649.026001,176.207947 662.573975,174.068573 675.508179,168.204971 
	C676.060364,167.954651 676.775635,168.064301 678.431885,167.913986 
	C674.745789,179.126740 671.216370,189.862854 667.614929,200.818115 
	C642.365479,200.818115 616.919495,200.818115 590.657471,200.818115 
	C591.827148,195.275635 592.964661,189.994492 594.046387,184.701935 
	C594.433533,182.807999 594.955505,180.887085 594.959473,178.977539 
	C595.018311,150.820816 595.000000,122.663910 595.000000,94.009087 
z"/>
<path fill="#231F20" opacity="1.000000" stroke="none" 
	d="
M783.000000,81.247078 
	C781.850891,75.238495 780.701843,69.701347 779.560181,64.199875 
	C791.852051,64.199875 804.311951,64.199875 817.249023,64.199875 
	C816.788086,66.188492 816.234558,67.859314 816.033508,69.571518 
	C815.292542,75.884018 814.134705,82.206520 814.091003,88.531868 
	C813.886230,118.185661 813.866699,147.842743 814.109436,177.495956 
	C814.159546,183.617477 815.605164,189.728195 816.418457,195.842438 
	C816.627136,197.411133 816.877258,198.974289 817.146179,200.796112 
	C804.423157,200.796112 792.130127,200.796112 779.849548,200.796112 
	C785.997375,173.193817 781.904175,145.101089 782.927734,117.202202 
	C783.361145,105.389328 783.000000,93.547295 783.000000,81.247078 
z"/>
<path fill="#231F20" opacity="1.000000" stroke="none" 
	d="
M299.000000,258.911865 
	C299.000000,248.512344 299.000000,238.601364 299.000000,228.358185 
	C302.302155,228.358185 306.501648,228.358185 310.815186,228.358185 
	C313.235107,233.653976 315.711151,239.072556 318.490234,245.154266 
	C321.269257,239.167984 323.829376,233.653290 326.349884,228.223877 
	C330.623383,228.223877 334.745087,228.223877 338.454651,228.223877 
	C338.454651,241.759598 338.454651,255.071167 338.454651,268.691162 
	C335.002838,268.691162 331.120880,268.691162 327.538940,268.691162 
	C327.538940,261.249512 327.538940,253.898148 327.538940,246.589035 
	C324.644714,253.017624 321.678558,259.605988 318.123016,267.503448 
	C314.574921,259.652985 311.600647,253.072189 308.489777,246.189163 
	C308.489777,253.872086 308.489777,261.145050 308.489777,268.710449 
	C305.346130,268.710449 301.779633,268.710449 299.000000,268.710449 
	C299.000000,265.512024 299.000000,262.456207 299.000000,258.911865 
z"/>
<path fill="#231F20" opacity="1.000000" stroke="none" 
	d="
M676.725220,250.305084 
	C675.849548,248.806274 675.204041,247.617462 674.462891,246.252579 
	C674.462891,253.921036 674.462891,261.248993 674.462891,268.711792 
	C671.230713,268.711792 667.659180,268.711792 664.507324,268.711792 
	C664.507324,255.108246 664.507324,241.792282 664.507324,228.002335 
	C667.431274,228.002335 670.759033,227.742844 674.007874,228.135605 
	C675.232727,228.283691 676.665833,229.728149 677.332458,230.948456 
	C680.110352,236.033691 682.632568,241.258621 685.510132,246.949707 
	C685.510132,240.576889 685.510132,234.720184 685.510132,228.431763 
	C688.539673,228.431763 692.036438,228.431763 695.223877,228.431763 
	C695.223877,241.754105 695.223877,255.219421 695.223877,268.613556 
	C686.292786,269.442902 686.287476,269.445526 682.752930,262.345123 
	C680.809265,258.440643 678.887207,254.525452 676.725220,250.305084 
z"/>
<path fill="#231F20" opacity="1.000000" stroke="none" 
	d="
M438.154572,269.000000 
	C436.381470,269.000000 435.056793,269.000000 433.710663,269.000000 
	C435.543854,255.437347 435.949982,242.041412 433.476074,228.006821 
	C436.837585,228.006821 440.571899,227.810532 444.261658,228.129532 
	C445.332581,228.222107 446.620392,229.604080 447.218994,230.713272 
	C450.026154,235.914612 452.627625,241.226974 456.262909,246.380737 
	C455.865540,240.353897 455.468201,234.327057 455.062714,228.176620 
	C457.780365,228.176620 461.190430,228.176620 464.419006,228.176620 
	C464.419006,241.675018 464.419006,254.991592 464.419006,268.653992 
	C461.136017,268.653992 458.405884,268.653992 455.340820,268.653992 
	C451.557648,261.114594 447.626801,253.280899 443.496674,245.050018 
	C443.496674,253.190872 443.496674,260.797791 443.496674,269.000000 
	C442.145294,269.000000 440.374176,269.000000 438.154572,269.000000 
z"/>
<path fill="#231F20" opacity="1.000000" stroke="none" 
	d="
M1106.000000,242.163269 
	C1106.000000,247.628311 1106.253784,252.634109 1105.884033,257.593445 
	C1105.719482,259.800568 1104.559937,262.068146 1103.397705,264.040558 
	C1100.197632,269.470886 1094.840454,268.852509 1089.498657,269.154388 
	C1083.708374,269.481659 1079.149292,268.102570 1075.913208,263.286163 
	C1074.988159,261.909424 1074.148315,260.175476 1074.085693,258.573456 
	C1073.865479,252.930252 1074.266235,247.256485 1073.913452,241.626785 
	C1073.643921,237.325455 1075.161499,234.423615 1077.998535,231.195541 
	C1081.691650,226.993439 1086.009277,228.118149 1090.281982,228.046310 
	C1094.433228,227.976501 1098.493774,227.293762 1102.049194,231.234100 
	C1104.958984,234.458862 1106.679321,237.431686 1106.000000,242.163269 
M1085.002563,239.910370 
	C1085.001709,245.076859 1085.198242,250.253296 1084.938843,255.406769 
	C1084.723145,259.693542 1087.098877,260.917664 1090.630737,260.967407 
	C1094.491211,261.021851 1095.099487,258.444122 1095.027222,255.255280 
	C1094.921509,250.591156 1095.208618,245.908768 1094.894531,241.263489 
	C1094.773682,239.476440 1093.652344,236.425293 1092.658569,236.285538 
	C1089.974365,235.908127 1086.190796,234.399551 1085.002563,239.910370 
z"/>
<path fill="#231F20" opacity="1.000000" stroke="none" 
	d="
M568.326538,265.296082 
	C568.594421,252.753464 568.594421,240.586090 568.594421,227.791946 
	C567.653809,228.285858 567.877380,228.097366 568.128662,228.046799 
	C576.943481,226.272720 582.784668,229.137100 585.148499,238.338669 
	C585.884766,241.204620 587.884705,243.745956 589.503052,246.808395 
	C589.503052,240.430954 589.503052,234.424240 589.503052,228.208771 
	C592.747314,228.208771 596.195068,228.208771 598.599670,228.208771 
	C598.599670,241.719559 598.599670,255.191406 598.599670,268.827454 
	C594.937988,268.827454 592.320068,268.827454 589.435059,268.827454 
	C585.568542,261.128204 581.631714,253.289047 577.808228,245.675537 
	C577.808228,253.313980 577.808228,261.031036 577.808228,268.999512 
	C575.964661,268.999512 573.296692,268.825623 570.661743,269.046387 
	C567.785034,269.287354 567.808472,267.652740 568.326538,265.296082 
z"/>
<path fill="#231F20" opacity="1.000000" stroke="none" 
	d="
M1150.953979,228.000000 
	C1152.604492,228.799026 1154.839844,229.606827 1154.833252,230.395737 
	C1154.766479,238.308655 1154.261108,246.216339 1154.026367,254.129852 
	C1153.884033,258.924469 1154.000000,263.726746 1154.000000,268.759033 
	C1150.917603,268.759033 1148.155273,268.759033 1145.380981,268.759033 
	C1141.506714,261.019562 1137.623535,253.262680 1133.496826,245.018982 
	C1133.496826,253.253738 1133.496826,260.940887 1133.496826,268.814087 
	C1130.340820,268.814087 1127.047119,268.814087 1123.745850,268.814087 
	C1125.536133,255.424896 1125.954590,242.012894 1123.536011,228.323929 
	C1127.198608,228.323929 1131.255859,228.323929 1135.650879,228.323929 
	C1138.747437,234.501541 1141.986450,240.963211 1145.225342,247.424881 
	C1145.557129,247.415314 1145.889038,247.405746 1146.220825,247.396179 
	C1145.845703,240.987411 1145.470459,234.578659 1145.085449,228.000000 
	C1146.518188,228.000000 1148.508179,228.000000 1150.953979,228.000000 
z"/>
<path fill="#231F20" opacity="1.000000" stroke="none" 
	d="
M876.586182,268.999664 
	C870.585388,266.939484 867.001221,262.116333 867.000183,256.683990 
	C866.999207,251.351028 867.000000,246.018082 867.000000,240.685120 
	C867.000000,231.604141 870.609253,228.000046 879.703125,228.000000 
	C881.869629,228.000000 884.036133,227.999863 886.202637,228.000031 
	C893.850037,228.000626 897.999084,232.076706 897.999878,239.591019 
	C898.000488,245.923904 898.007935,252.256790 897.997620,258.589661 
	C897.988281,264.360535 893.328369,268.985474 887.521790,268.998535 
	C884.022034,269.006409 880.522278,269.000000 876.586182,268.999664 
M887.999939,240.919708 
	C888.183105,236.048737 884.924194,235.868271 881.363586,235.989120 
	C877.529175,236.119278 876.903259,238.530396 876.974548,241.701981 
	C877.075012,246.172028 877.028931,250.646240 876.991333,255.118210 
	C876.960205,258.818054 878.642151,260.934753 882.428589,260.978790 
	C886.204041,261.022736 888.011780,258.999573 888.002258,255.261612 
	C887.990845,250.789337 887.999817,246.317032 887.999939,240.919708 
z"/>
<path fill="#231F20" opacity="1.000000" stroke="none" 
	d="
M976.416077,268.999695 
	C972.814331,269.000000 969.628540,268.757874 966.496216,269.063416 
	C962.866455,269.417511 960.303894,268.203979 957.854431,265.522064 
	C955.604919,263.058990 954.472534,261.095154 954.761353,257.292572 
	C955.483887,247.780594 954.999695,238.176926 954.999695,228.302582 
	C957.983154,228.302582 961.877319,228.302582 965.000977,228.302582 
	C965.000977,237.467896 964.986877,246.512283 965.008484,255.556610 
	C965.016235,258.794739 966.659546,260.932861 969.905151,260.912750 
	C973.228394,260.892181 975.223572,259.345215 975.077332,255.389664 
	C974.806885,248.076828 975.038574,240.746460 974.969238,233.424271 
	C974.954224,231.840240 974.550537,230.259888 974.278259,228.342896 
	C977.968018,228.342896 981.827209,228.342896 985.867126,228.342896 
	C985.867126,239.145630 986.519897,249.977249 985.453857,260.636993 
	C985.149475,263.680634 979.859558,266.225677 976.416077,268.999695 
z"/>
<path fill="#231F20" opacity="1.000000" stroke="none" 
	d="
M639.406616,268.998810 
	C638.544250,268.219055 637.983643,267.482635 637.746521,266.653687 
	C637.061218,264.257050 637.100281,260.223755 635.777832,259.732452 
	C632.908081,258.666290 628.615662,258.262848 626.342407,259.764526 
	C624.537659,260.956665 624.869507,265.383087 624.174072,268.754669 
	C621.084106,268.754669 617.312927,268.754669 614.064758,268.754669 
	C617.594238,255.511917 621.194214,242.004654 624.899414,228.102692 
	C628.868408,228.102692 634.174561,228.102692 638.619812,228.102692 
	C642.219360,241.719147 645.737671,255.028290 649.431091,268.999847 
	C646.566284,268.999847 643.211243,268.999847 639.406616,268.998810 
M633.004883,245.471283 
	C632.547668,243.114975 632.090393,240.758682 631.407959,237.242004 
	C630.019958,242.308456 628.905151,246.377625 627.710022,250.739868 
	C630.052368,250.739868 631.943909,250.739868 634.348145,250.739868 
	C633.843872,249.020447 633.448792,247.673218 633.004883,245.471283 
z"/>
<path fill="#231F20" opacity="1.000000" stroke="none" 
	d="
M360.025909,244.077271 
	C361.310852,238.669144 362.569977,233.682846 363.937836,228.265900 
	C368.281891,228.265900 373.364105,228.265900 377.813141,228.265900 
	C381.518616,241.867920 385.178986,255.304337 388.850250,268.780670 
	C385.484100,268.780670 381.467926,268.780670 377.475037,268.780670 
	C376.941681,265.525543 376.426910,262.383759 375.924622,259.318146 
	C362.703522,258.620026 364.533539,257.843140 363.743561,268.732849 
	C360.024017,268.732849 356.270264,268.732849 352.970367,268.732849 
	C355.270111,260.804840 357.635101,252.651962 360.025909,244.077271 
M368.995819,243.451813 
	C368.353271,245.844879 367.710693,248.237946 367.013916,250.832947 
	C369.499207,250.832947 371.605713,250.832947 373.602753,250.832947 
	C372.597870,246.293900 371.622650,241.888718 370.531555,236.960098 
	C369.915466,239.239655 369.459259,240.927612 368.995819,243.451813 
z"/>
<path fill="#231F20" opacity="1.000000" stroke="none" 
	d="
M783.736694,261.633240 
	C782.711548,267.595612 779.866516,269.835052 773.906921,269.143921 
	C768.168945,268.478546 762.293274,269.000000 756.548096,269.000000 
	C756.548096,255.300720 756.548096,241.876602 756.548096,228.230026 
	C764.249207,228.230026 772.364197,228.230026 780.603638,228.230026 
	C781.460022,230.918610 782.326172,233.637787 783.234314,236.488892 
	C777.765076,236.488892 772.620117,236.488892 767.236450,236.488892 
	C767.236450,238.404175 767.236450,240.481277 767.236450,243.323166 
	C770.518188,242.607513 773.567444,241.942566 776.720459,241.254990 
	C776.720459,244.777084 776.720459,248.344513 776.720459,251.849121 
	C773.550659,251.465866 770.645081,251.114548 767.941589,250.787674 
	C767.485657,251.322998 767.103088,251.560944 767.087036,251.821457 
	C766.479187,261.692657 768.607239,263.082703 778.651611,260.307770 
	C779.689026,260.021179 783.366028,255.567719 783.736694,261.633240 
z"/>
<path fill="#231F20" opacity="1.000000" stroke="none" 
	d="
M537.039307,259.785767 
	C542.584167,260.257660 548.096191,260.257660 553.961243,260.257660 
	C553.746826,259.603027 553.995178,259.947632 553.912903,260.169525 
	C550.636536,269.001465 550.632629,269.000000 541.200623,269.000000 
	C536.232056,269.000000 531.263550,269.000000 526.503052,269.000000 
	C526.503052,255.186264 526.503052,241.776764 526.503052,228.001266 
	C533.496155,228.001266 540.637634,227.882111 547.766724,228.125458 
	C548.878296,228.163406 550.255615,229.664703 550.937378,230.825607 
	C551.896423,232.458755 552.320129,234.406281 553.137451,236.676758 
	C547.818665,236.378067 542.733032,236.092484 537.313721,235.788147 
	C537.313721,238.258820 537.313721,240.324585 537.313721,243.196945 
	C540.177124,242.678238 543.015442,242.164078 545.719849,241.674179 
	C545.719849,245.043320 545.719849,248.476074 545.719849,251.938553 
	C542.880127,251.520081 540.314636,251.142014 537.006409,250.654495 
	C537.006409,253.815994 537.006409,256.564911 537.039307,259.785767 
z"/>
<path fill="#231F20" opacity="1.000000" stroke="none" 
	d="
M847.787842,236.969330 
	C843.789307,236.661804 840.208191,236.010391 836.666687,236.180862 
	C835.398865,236.241882 834.226624,238.288330 833.010742,239.428589 
	C834.183777,240.615738 835.153992,242.284943 836.574951,242.883072 
	C839.036377,243.919159 842.052612,243.785599 844.349854,245.035995 
	C851.659790,249.014862 851.026917,264.125885 842.893372,268.481812 
	C841.963440,268.979828 840.694580,268.967468 839.580811,268.978485 
	C834.596191,269.027832 829.610840,268.999969 824.472168,268.999969 
	C823.401062,265.709290 822.367432,262.533569 821.255371,259.117035 
	C825.195190,259.745941 829.107910,260.502380 833.055359,260.958954 
	C836.217529,261.324707 838.522217,259.806244 838.920532,256.594238 
	C839.346436,253.159180 837.108093,252.209427 834.006409,251.871185 
	C831.697266,251.619370 829.198608,250.927444 827.278625,249.674271 
	C820.172302,245.036026 821.431580,232.999741 829.105835,228.542877 
	C830.130920,227.947571 831.624146,228.038452 832.903259,228.022156 
	C837.387939,227.965012 841.873840,228.000000 846.991333,228.000000 
	C847.406738,231.023712 847.813843,233.986786 847.787842,236.969330 
z"/>
<path fill="#231F20" opacity="1.000000" stroke="none" 
	d="
M1197.959229,235.934845 
	C1194.268433,236.242538 1190.576050,235.778259 1186.969360,236.148880 
	C1185.238525,236.326736 1183.669922,238.083084 1182.027832,239.124542 
	C1183.590210,240.416626 1185.002930,242.526123 1186.743774,242.845215 
	C1191.669922,243.748184 1196.219238,245.412354 1197.849976,250.273087 
	C1200.096313,256.968964 1197.185303,264.983643 1192.133057,268.226776 
	C1191.261719,268.786011 1190.020630,268.916962 1188.937378,268.967041 
	C1186.614380,269.074463 1184.282959,269.000000 1181.955078,269.000000 
	C1172.847656,269.000031 1172.847656,269.000000 1171.070068,259.185028 
	C1174.744263,259.803131 1178.282593,260.605743 1181.864502,260.935486 
	C1184.745850,261.200714 1187.626099,260.667236 1187.968628,256.927277 
	C1188.301758,253.287781 1186.206909,252.228027 1182.847778,251.834900 
	C1180.397461,251.548172 1177.846680,250.471054 1175.759521,249.105911 
	C1172.325806,246.860107 1169.924561,238.579254 1172.258301,234.834549 
	C1174.560181,231.140793 1177.378906,226.953003 1183.147461,227.947174 
	C1185.085205,228.281143 1187.129028,227.999985 1189.124390,227.999985 
	C1196.364502,228.000031 1196.364502,228.000046 1197.959229,235.934845 
z"/>
<path fill="#231F20" opacity="1.000000" stroke="none" 
	d="
M736.779297,237.017441 
	C727.846252,233.906143 722.923218,237.796860 723.946960,245.240234 
	C724.283691,247.688309 723.990112,250.221756 724.001892,252.716080 
	C724.034851,259.693756 728.155823,262.617828 734.996277,260.537811 
	C737.098816,259.898499 739.211670,259.293549 741.947998,258.487915 
	C741.119324,260.899323 740.540771,262.487427 740.030090,264.097046 
	C739.547241,265.618652 739.135803,267.162872 738.605530,268.999786 
	C733.712036,268.999786 728.738647,269.071167 723.768372,268.976135 
	C720.095703,268.905945 714.050781,262.585449 714.015259,258.833130 
	C713.958496,252.847168 714.196411,246.851425 713.928162,240.876953 
	C713.760620,237.144669 714.605530,234.299225 717.574402,231.793976 
	C720.939880,228.953995 732.966858,226.257080 736.987793,228.125351 
	C737.851685,228.526733 738.545715,229.725632 738.898254,230.707825 
	C739.697632,232.934662 740.235596,235.255356 741.096008,238.303741 
	C739.470398,237.775360 738.336304,237.406723 736.779297,237.017441 
z"/>
<path fill="#231F20" opacity="1.000000" stroke="none" 
	d="
M1020.000000,251.987549 
	C1020.245605,257.940735 1020.491211,263.397736 1020.738892,268.900391 
	C1017.078369,268.900391 1012.771606,268.900391 1008.425171,268.900391 
	C1008.967407,266.797150 1009.890625,264.804626 1009.928101,262.795593 
	C1010.091858,254.018158 1009.998596,245.235931 1009.998596,235.583282 
	C1005.870483,236.400360 1002.207764,237.125336 998.482300,237.862717 
	C998.498230,237.533463 998.460632,237.289078 998.527344,237.077606 
	C1001.391663,227.999649 1001.392761,228.000000 1011.147034,228.000000 
	C1015.466736,228.000000 1019.805847,228.252777 1024.100342,227.923889 
	C1027.863403,227.635681 1029.884644,228.769272 1030.354980,232.670868 
	C1030.555298,234.333344 1031.451538,235.911911 1032.214233,238.037781 
	C1028.007935,237.158783 1024.317993,236.387680 1020.000000,235.485336 
	C1020.000000,241.274902 1020.000000,246.383133 1020.000000,251.987549 
z"/>
<path fill="#231F20" opacity="1.000000" stroke="none" 
	d="
M489.134338,228.000000 
	C494.110870,228.000000 498.634705,228.325699 503.089600,227.910919 
	C507.807281,227.471695 510.588531,228.803192 511.058624,233.817719 
	C511.171753,235.024658 511.787598,236.184479 512.520752,238.436447 
	C509.734467,237.585800 507.844299,236.999710 505.948730,236.431824 
	C501.487854,235.095444 499.954224,236.047989 500.030029,240.486389 
	C500.188995,249.796799 500.515656,259.104340 500.781342,268.698303 
	C497.658173,268.698303 493.438049,268.698303 490.369141,268.698303 
	C490.579346,258.859009 490.803741,249.048950 490.991394,239.238174 
	C491.069061,235.177277 488.094116,235.783844 485.732025,236.171494 
	C483.612762,236.519318 481.599548,237.513474 479.332123,238.293869 
	C479.939575,228.835251 480.741364,228.000488 489.134338,228.000000 
z"/>
<path fill="#231F20" opacity="1.000000" stroke="none" 
	d="
M927.013672,269.000000 
	C923.054932,269.000000 919.589417,269.000000 916.507690,269.000000 
	C916.507690,255.234940 916.507690,241.932678 916.507690,228.315430 
	C919.967041,228.315430 923.849060,228.315430 927.486938,228.315430 
	C927.486938,239.075455 927.486938,249.749786 927.486938,261.397247 
	C932.404419,260.755554 937.432739,260.099396 942.967224,259.377228 
	C942.113525,261.927368 941.455566,264.638092 940.260315,267.086609 
	C939.799377,268.031036 938.153137,268.821899 936.985962,268.914612 
	C933.843811,269.164154 930.668823,268.999939 927.013672,269.000000 
z"/>
<path fill="#231F20" opacity="1.000000" stroke="none" 
	d="
M1056.000000,249.998108 
	C1056.000000,256.532867 1056.000000,262.568359 1056.000000,268.800598 
	C1053.004272,268.800598 1049.240356,268.800598 1045.503418,268.800598 
	C1045.503418,255.328796 1045.503418,241.956436 1045.503418,228.292511 
	C1048.984375,228.292511 1052.877930,228.292511 1056.000000,228.292511 
	C1056.000000,235.434662 1056.000000,242.466736 1056.000000,249.998108 
z"/>
<path fill="#231F20" opacity="1.000000" stroke="none" 
	d="
M414.208252,231.529022 
	C414.033997,244.145065 414.033997,256.332458 414.033997,268.761902 
	C411.041870,268.761902 407.280243,268.761902 403.545197,268.761902 
	C403.545197,255.366089 403.545197,241.991028 403.545197,228.002609 
	C406.343597,228.002609 409.584900,228.024887 412.825684,227.995712 
	C415.514954,227.971512 415.435638,229.277786 414.208252,231.529022 
z"/>
<path fill="#2B2727" opacity="1.000000" stroke="none" 
	d="
M239.866867,288.411011 
	C226.517502,288.867218 213.232254,288.867218 199.243057,288.867218 
	C199.243057,283.189789 199.243057,277.918213 199.243057,272.646637 
	C199.243073,266.319397 199.527145,259.975098 199.148193,253.670624 
	C198.872757,249.088242 200.622513,248.052856 204.883362,248.153015 
	C216.199554,248.418976 227.526093,248.244385 239.299561,248.204895 
	C239.810730,261.428101 239.870850,274.691467 239.866867,288.411011 
M207.740173,255.023605 
	C207.167786,255.627213 206.105194,256.224274 206.097061,256.835388 
	C205.986816,265.110352 206.023010,273.387268 206.023010,281.798767 
	C215.201843,281.798767 223.930084,281.798767 232.797119,281.798767 
	C232.797119,272.835785 232.797119,264.108368 232.797119,255.017593 
	C224.611832,255.017593 216.657181,255.017593 207.740173,255.023605 
z"/>
<path fill="#2B2727" opacity="1.000000" stroke="none" 
	d="
M239.827576,178.386139 
	C227.763168,178.811249 215.776550,178.787506 203.789978,178.753098 
	C201.630112,178.746902 199.242981,179.111710 199.249039,175.740646 
	C199.271103,163.449036 199.257751,151.157349 199.257751,138.118820 
	C212.743805,138.118820 225.817841,138.118820 239.347595,138.126801 
	C239.837341,151.401077 239.871353,164.667343 239.827576,178.386139 
M222.479828,144.966690 
	C217.061035,144.966690 211.642258,144.966690 206.326111,144.966690 
	C206.326111,154.326172 206.326111,163.055267 206.326111,171.674164 
	C215.371429,171.674164 224.104355,171.674164 232.717636,171.674164 
	C232.717636,162.631897 232.717636,153.901642 232.717636,144.966690 
	C229.425522,144.966690 226.447433,144.966690 222.479828,144.966690 
z"/>
<path fill="#292526" opacity="1.000000" stroke="none" 
	d="
M239.895874,232.429428 
	C226.559372,232.887970 213.278091,232.887970 199.625931,232.887970 
	C199.625931,219.629562 199.625931,206.599670 199.625931,192.936386 
	C212.832062,192.936386 225.898010,192.936386 239.419052,193.013840 
	C239.899811,206.051163 239.925461,219.011017 239.895874,232.429428 
M217.512939,226.080017 
	C222.599335,226.080017 227.685730,226.080017 232.817139,226.080017 
	C232.817139,217.102249 232.817139,208.703156 232.817139,200.097473 
	C223.885193,200.097473 215.172668,200.097473 206.312378,200.097473 
	C206.312378,208.810120 206.312378,217.334991 206.312378,226.080032 
	C209.912735,226.080032 213.216278,226.080032 217.512939,226.080017 
z"/>
<path fill="#292526" opacity="1.000000" stroke="none" 
	d="
M239.895874,122.429382 
	C226.559402,122.887924 213.278152,122.887924 199.625946,122.887924 
	C199.625946,109.629951 199.625946,96.599884 199.625946,82.936371 
	C212.832077,82.936371 225.897995,82.936371 239.419037,83.013763 
	C239.899780,96.051056 239.925430,109.010956 239.895874,122.429382 
M232.957626,90.706345 
	C224.139832,90.311882 215.322037,89.917419 206.301865,89.513901 
	C206.301865,98.783180 206.301865,107.309296 206.301865,115.799500 
	C215.310043,115.799500 224.027283,115.799500 233.028748,115.799500 
	C233.028748,107.574402 233.028748,99.626320 232.957626,90.706345 
z"/>
<path fill="#291F21" opacity="1.000000" stroke="none" 
	d="
M134.897766,154.006256 
	C134.897156,161.165039 134.798416,167.826996 134.938797,174.483902 
	C135.005920,177.666504 133.867706,178.975906 130.592194,178.940079 
	C119.771179,178.821716 108.945511,179.005692 98.128960,178.755997 
	C96.751534,178.724228 94.263931,176.836792 94.239777,175.765121 
	C93.962814,163.474945 94.063400,151.176239 94.063400,138.041733 
	C97.353226,138.041733 100.272423,138.041748 103.191612,138.041748 
	C111.516464,138.041748 119.841316,138.038452 128.166168,138.042786 
	C134.891281,138.046280 134.892044,138.050354 134.897522,145.015991 
	C134.899734,147.846451 134.897858,150.676895 134.897766,154.006256 
M115.494354,171.994766 
	C119.589409,171.994766 123.684464,171.994766 127.701218,171.994766 
	C127.701218,162.681992 127.701218,153.958496 127.701218,145.299103 
	C118.681320,145.299103 109.957817,145.299103 101.299431,145.299103 
	C101.299431,154.319351 101.299431,163.042862 101.299431,171.994766 
	C105.894379,171.994766 110.197189,171.994766 115.494354,171.994766 
z"/>
<path fill="#291F21" opacity="1.000000" stroke="none" 
	d="
M101.098862,288.958191 
	C98.656960,288.958130 96.701088,288.958130 94.041740,288.958130 
	C94.041740,285.164673 94.041710,281.891785 94.041756,278.618927 
	C94.041855,270.126190 94.159721,261.631012 93.985550,253.141846 
	C93.913452,249.627899 94.830093,247.967484 98.715782,248.037949 
	C109.203369,248.228073 119.698982,248.228577 130.186508,248.036789 
	C134.047440,247.966187 135.007904,249.576538 134.953751,253.111435 
	C134.795609,263.433533 134.786972,273.761444 134.956818,284.083160 
	C135.017029,287.742004 133.797012,289.100708 130.059235,289.023254 
	C120.571419,288.826477 111.076797,288.958069 101.098862,288.958191 
M108.563278,255.005234 
	C106.130699,255.005234 103.698120,255.005234 101.283249,255.005234 
	C101.283249,264.284790 101.283249,273.008270 101.283249,281.715393 
	C110.287636,281.715393 119.011192,281.715393 127.713989,281.715393 
	C127.713989,272.709503 127.713989,263.985870 127.713989,255.005234 
	C121.473068,255.005234 115.509399,255.005234 108.563278,255.005234 
z"/>
<path fill="#261F20" opacity="1.000000" stroke="none" 
	d="
M99.165924,233.005585 
	C97.387100,232.919601 96.087425,232.833664 94.426468,232.723846 
	C94.426468,219.650024 94.426468,206.768265 94.426468,193.442032 
	C95.580788,193.283234 96.828796,192.966980 98.077957,192.962402 
	C108.886009,192.922699 119.696121,192.842758 130.500259,193.051987 
	C131.968552,193.080414 134.651947,194.611526 134.671921,195.494370 
	C134.949219,207.752487 134.859573,220.018906 134.859573,233.005661 
	C122.788864,233.005661 111.216965,233.005661 99.165924,233.005585 
M112.514297,200.002701 
	C108.749649,200.002701 104.984993,200.002701 101.294151,200.002701 
	C101.294151,208.979065 101.294151,217.371140 101.294151,225.705627 
	C110.313591,225.705627 119.038727,225.705627 127.704781,225.705627 
	C127.704781,217.018555 127.704781,208.626480 127.704781,200.002701 
	C122.779465,200.002701 118.142975,200.002701 112.514297,200.002701 
z"/>
<path fill="#271F20" opacity="1.000000" stroke="none" 
	d="
M58.998714,248.108871 
	C64.322380,248.110260 69.165588,247.874557 73.958763,248.260345 
	C75.357231,248.372879 77.737465,250.232422 77.761978,251.333588 
	C78.035172,263.606567 77.934288,275.887909 77.934288,288.557495 
	C64.620003,288.557495 51.741447,288.557495 38.397583,288.557495 
	C38.397583,275.404724 38.397583,262.208801 38.397583,248.108734 
	C45.014515,248.108734 51.756847,248.108734 58.998714,248.108871 
M45.003628,258.661102 
	C45.003628,266.402649 45.003628,274.144226 45.003628,281.646606 
	C54.095779,281.646606 62.491592,281.646606 70.644127,281.646606 
	C70.644127,272.565369 70.644127,263.836548 70.644127,255.003784 
	C62.977230,255.003784 55.661896,255.032806 48.347076,254.984436 
	C46.397560,254.971527 44.536705,254.829956 45.003628,258.661102 
z"/>
<path fill="#271F20" opacity="1.000000" stroke="none" 
	d="
M37.936356,144.122208 
	C37.936306,142.016464 37.936306,140.393005 37.936306,138.409973 
	C51.349014,138.409973 64.233681,138.409973 77.953102,138.409973 
	C77.953102,142.865250 77.953384,147.280212 77.953041,151.695175 
	C77.952438,159.348969 78.102150,167.008377 77.816673,174.651535 
	C77.762993,176.088516 76.000114,178.656387 74.978592,178.680298 
	C62.881073,178.963623 50.774555,178.862656 37.936409,178.862656 
	C37.936409,167.096863 37.936409,155.850662 37.936356,144.122208 
M66.370125,145.003555 
	C59.291752,145.003555 52.213383,145.003555 45.342865,145.003555 
	C45.342865,154.408142 45.342865,163.136154 45.342865,171.654175 
	C54.080296,171.654175 62.475559,171.654175 70.996208,171.654175 
	C70.996208,163.667313 70.843552,156.017654 71.071365,148.379318 
	C71.162453,145.325317 69.953888,144.614685 66.370125,145.003555 
z"/>
<path fill="#241F20" opacity="1.000000" stroke="none" 
	d="
M37.941727,209.002625 
	C37.941662,203.546005 37.941662,198.588593 37.941662,193.293335 
	C51.392738,193.293335 64.288193,193.293335 77.565460,193.293335 
	C77.565460,206.328857 77.565460,219.232147 77.565460,232.570099 
	C64.678017,232.570099 51.782059,232.570099 37.941792,232.570099 
	C37.941792,224.985916 37.941792,217.243881 37.941727,209.002625 
M63.437828,225.999100 
	C65.871254,225.999100 68.304688,225.999100 70.721664,225.999100 
	C70.721664,217.050949 70.721664,208.657669 70.721664,200.279755 
	C62.048038,200.279755 53.654736,200.279755 45.281204,200.279755 
	C45.281204,208.954895 45.281204,217.348206 45.281204,225.999100 
	C51.191288,225.999100 56.823425,225.999100 63.437828,225.999100 
z"/>
<path fill="#FFFFFF" opacity="1.000000" stroke="none" 
	d="
M1160.464233,173.833466 
	C1151.838135,176.340927 1143.616577,175.914963 1136.852783,170.693741 
	C1134.109375,168.576035 1132.296875,163.655853 1132.210571,159.960556 
	C1131.759644,140.679810 1131.954102,121.382751 1132.027954,102.091766 
	C1132.050293,96.250740 1137.413330,89.029434 1143.649414,88.368240 
	C1150.000732,87.694839 1156.682129,86.555313 1162.999146,89.910744 
	C1167.723267,92.420113 1169.824951,96.501396 1169.888062,101.212303 
	C1170.152954,120.998947 1170.180908,140.793823 1169.889893,160.579742 
	C1169.802368,166.529663 1166.815186,171.351013 1160.464233,173.833466 
z"/>
<path fill="#FFFFFF" opacity="1.000000" stroke="none" 
	d="
M1013.136963,88.000000 
	C1020.221741,88.540413 1026.690674,87.476822 1033.407837,90.419556 
	C1041.702393,94.053284 1043.499634,106.619904 1041.089355,112.742790 
	C1037.939941,120.743347 1031.571167,123.716011 1023.542908,123.971756 
	C1018.717529,124.125473 1013.881897,123.932610 1009.053223,124.022186 
	C1005.497742,124.088158 1003.938354,122.487617 1003.976013,118.939529 
	C1004.055359,111.444992 1003.999939,103.949020 1004.000000,96.453644 
	C1004.000122,88.000648 1004.000183,88.000648 1013.136963,88.000000 
z"/>
<path fill="#FFFFFF" opacity="1.000000" stroke="none" 
	d="
M897.932129,124.000000 
	C893.621277,123.999916 889.791504,123.864304 885.976440,124.042320 
	C882.887939,124.186447 881.915894,122.900429 881.955139,119.926636 
	C882.078003,110.619041 882.084900,101.307579 881.951965,92.000259 
	C881.908325,88.943344 883.044373,87.878510 886.048828,87.955086 
	C892.029419,88.107529 898.135071,87.251770 903.973450,88.175339 
	C912.749573,89.563644 918.728699,93.257912 918.943176,103.306244 
	C919.015381,106.694771 919.070251,110.313599 918.017517,113.453079 
	C914.864502,122.855774 906.987427,124.242081 897.932129,124.000000 
z"/>
<path fill="#FFFFFF" opacity="1.000000" stroke="none" 
	d="
M1085.016357,239.451157 
	C1086.190796,234.399551 1089.974365,235.908127 1092.658569,236.285538 
	C1093.652344,236.425293 1094.773682,239.476440 1094.894531,241.263489 
	C1095.208618,245.908768 1094.921509,250.591156 1095.027222,255.255280 
	C1095.099487,258.444122 1094.491211,261.021851 1090.630737,260.967407 
	C1087.098877,260.917664 1084.723145,259.693542 1084.938843,255.406769 
	C1085.198242,250.253296 1085.001709,245.076859 1085.016357,239.451157 
z"/>
<path fill="#FFFFFF" opacity="1.000000" stroke="none" 
	d="
M888.000000,241.382233 
	C887.999817,246.317032 887.990845,250.789337 888.002258,255.261612 
	C888.011780,258.999573 886.204041,261.022736 882.428589,260.978790 
	C878.642151,260.934753 876.960205,258.818054 876.991333,255.118210 
	C877.028931,250.646240 877.075012,246.172028 876.974548,241.701981 
	C876.903259,238.530396 877.529175,236.119278 881.363586,235.989120 
	C884.924194,235.868271 888.183105,236.048737 888.000000,241.382233 
z"/>
<path fill="#FFFFFF" opacity="1.000000" stroke="none" 
	d="
M633.029297,245.898621 
	C633.448792,247.673218 633.843872,249.020447 634.348145,250.739868 
	C631.943909,250.739868 630.052368,250.739868 627.710022,250.739868 
	C628.905151,246.377625 630.019958,242.308456 631.407959,237.242004 
	C632.090393,240.758682 632.547668,243.114975 633.029297,245.898621 
z"/>
<path fill="#FFFFFF" opacity="1.000000" stroke="none" 
	d="
M368.999451,243.033691 
	C369.459259,240.927612 369.915466,239.239655 370.531555,236.960098 
	C371.622650,241.888718 372.597870,246.293900 373.602753,250.832947 
	C371.605713,250.832947 369.499207,250.832947 367.013916,250.832947 
	C367.710693,248.237946 368.353271,245.844879 368.999451,243.033691 
z"/>
<path fill="#FFFFFF" opacity="1.000000" stroke="none" 
	d="
M208.221344,255.020599 
	C216.657181,255.017593 224.611832,255.017593 232.797119,255.017593 
	C232.797119,264.108368 232.797119,272.835785 232.797119,281.798767 
	C223.930084,281.798767 215.201843,281.798767 206.023010,281.798767 
	C206.023010,273.387268 205.986816,265.110352 206.097061,256.835388 
	C206.105194,256.224274 207.167786,255.627213 208.221344,255.020599 
z"/>
<path fill="#FFFFFF" opacity="1.000000" stroke="none" 
	d="
M222.974579,144.966690 
	C226.447433,144.966690 229.425522,144.966690 232.717636,144.966690 
	C232.717636,153.901642 232.717636,162.631897 232.717636,171.674164 
	C224.104355,171.674164 215.371429,171.674164 206.326111,171.674164 
	C206.326111,163.055267 206.326111,154.326172 206.326111,144.966690 
	C211.642258,144.966690 217.061035,144.966690 222.974579,144.966690 
z"/>
<path fill="#FFFFFF" opacity="1.000000" stroke="none" 
	d="
M217.016373,226.080017 
	C213.216278,226.080032 209.912735,226.080032 206.312378,226.080032 
	C206.312378,217.334991 206.312378,208.810120 206.312378,200.097473 
	C215.172668,200.097473 223.885193,200.097473 232.817139,200.097473 
	C232.817139,208.703156 232.817139,217.102249 232.817139,226.080017 
	C227.685730,226.080017 222.599335,226.080017 217.016373,226.080017 
z"/>
<path fill="#FFFFFF" opacity="1.000000" stroke="none" 
	d="
M232.993195,91.192291 
	C233.028748,99.626320 233.028748,107.574402 233.028748,115.799500 
	C224.027283,115.799500 215.310043,115.799500 206.301865,115.799500 
	C206.301865,107.309296 206.301865,98.783180 206.301865,89.513901 
	C215.322037,89.917419 224.139832,90.311882 232.993195,91.192291 
z"/>
<path fill="#FFFFFF" opacity="1.000000" stroke="none" 
	d="
M114.997177,171.994766 
	C110.197189,171.994766 105.894379,171.994766 101.299431,171.994766 
	C101.299431,163.042862 101.299431,154.319351 101.299431,145.299103 
	C109.957817,145.299103 118.681320,145.299103 127.701218,145.299103 
	C127.701218,153.958496 127.701218,162.681992 127.701218,171.994766 
	C123.684464,171.994766 119.589409,171.994766 114.997177,171.994766 
z"/>
<path fill="#FFFFFF" opacity="1.000000" stroke="none" 
	d="
M109.054504,255.005234 
	C115.509399,255.005234 121.473068,255.005234 127.713989,255.005234 
	C127.713989,263.985870 127.713989,272.709503 127.713989,281.715393 
	C119.011192,281.715393 110.287636,281.715393 101.283249,281.715393 
	C101.283249,273.008270 101.283249,264.284790 101.283249,255.005234 
	C103.698120,255.005234 106.130699,255.005234 109.054504,255.005234 
z"/>
<path fill="#FFFFFF" opacity="1.000000" stroke="none" 
	d="
M113.010391,200.002701 
	C118.142975,200.002701 122.779465,200.002701 127.704781,200.002701 
	C127.704781,208.626480 127.704781,217.018555 127.704781,225.705627 
	C119.038727,225.705627 110.313591,225.705627 101.294151,225.705627 
	C101.294151,217.371140 101.294151,208.979065 101.294151,200.002701 
	C104.984993,200.002701 108.749649,200.002701 113.010391,200.002701 
z"/>
<path fill="#FFFFFF" opacity="1.000000" stroke="none" 
	d="
M45.003883,258.176880 
	C44.536705,254.829956 46.397560,254.971527 48.347076,254.984436 
	C55.661896,255.032806 62.977230,255.003784 70.644127,255.003784 
	C70.644127,263.836548 70.644127,272.565369 70.644127,281.646606 
	C62.491592,281.646606 54.095779,281.646606 45.003628,281.646606 
	C45.003628,274.144226 45.003628,266.402649 45.003883,258.176880 
z"/>
<path fill="#FFFFFF" opacity="1.000000" stroke="none" 
	d="
M66.854477,145.003571 
	C69.953888,144.614685 71.162453,145.325317 71.071365,148.379318 
	C70.843552,156.017654 70.996208,163.667313 70.996208,171.654175 
	C62.475559,171.654175 54.080296,171.654175 45.342865,171.654175 
	C45.342865,163.136154 45.342865,154.408142 45.342865,145.003555 
	C52.213383,145.003555 59.291752,145.003555 66.854477,145.003571 
z"/>
<path fill="#FFFFFF" opacity="1.000000" stroke="none" 
	d="
M62.946693,225.999100 
	C56.823425,225.999100 51.191288,225.999100 45.281204,225.999100 
	C45.281204,217.348206 45.281204,208.954895 45.281204,200.279755 
	C53.654736,200.279755 62.048038,200.279755 70.721664,200.279755 
	C70.721664,208.657669 70.721664,217.050949 70.721664,225.999100 
	C68.304688,225.999100 65.871254,225.999100 62.946693,225.999100 
z"/>
</svg>